<svg width="17" height="17" viewBox="0 0 17 17" fill="none" xmlns="http://www.w3.org/2000/svg">
<path id="1" fill-rule="evenodd" clip-rule="evenodd" d="M4.45251 1.30276C2.95581 2.16688 2.443 4.08071 3.30712 5.57741L4.48061 7.60994L2.44814 8.78339C0.951434 9.64751 0.438625 11.5613 1.30275 13.058C2.16687 14.5547 4.0807 15.0676 5.5774 14.2034L7.60987 13.03L8.78334 15.0625C9.64746 16.5592 11.5613 17.072 13.058 16.2079C14.5547 15.3438 15.0675 13.4299 14.2034 11.9332L13.0299 9.90072L15.0625 8.72722C16.5592 7.8631 17.072 5.94927 16.2079 4.45257C15.3437 2.95587 13.4299 2.44306 11.9332 3.30718L9.90065 4.48068L8.72717 2.44815C7.86305 0.951444 5.94922 0.438635 4.45251 1.30276Z" fill="#A586FE"/>
</svg>
