<svg width="28" height="28" viewBox="0 0 28 28" fill="none" xmlns="http://www.w3.org/2000/svg">
<path id="2" fill-rule="evenodd" clip-rule="evenodd" d="M21.358 1.33052C18.808 -0.141691 15.5474 0.731982 14.0752 3.28192L12.076 6.7447L8.6133 4.74552C6.06336 3.27331 2.80277 4.14699 1.33056 6.69693C-0.141651 9.24687 0.732021 12.5075 3.28196 13.9797L6.74464 15.9789L4.74537 19.4417C3.27317 21.9916 4.14684 25.2522 6.69678 26.7244C9.24672 28.1966 12.5073 27.323 13.9795 24.773L15.9788 21.3102L19.4417 23.3095C21.9917 24.7817 25.2523 23.9081 26.7245 21.3581C28.1967 18.8082 27.323 15.5476 24.7731 14.0754L21.3101 12.076L23.3094 8.61326C24.7816 6.06332 23.9079 2.80273 21.358 1.33052Z" fill="#C491D7"/>
</svg>
