<svg width="24" height="24" viewBox="0 0 24 24" fill="none" xmlns="http://www.w3.org/2000/svg">
<path id="3" fill-rule="evenodd" clip-rule="evenodd" d="M5.84404 1.40038C3.66621 2.65775 2.92003 5.44254 4.1774 7.62037L5.88488 10.5778L2.92747 12.2853C0.749633 13.5426 0.00345331 16.3274 1.26083 18.5053C2.5182 20.6831 5.30298 21.4293 7.48081 20.1719L10.4382 18.4644L12.1458 21.422C13.4031 23.5998 16.1879 24.346 18.3657 23.0886C20.5436 21.8312 21.2898 19.0465 20.0324 16.8686L18.3249 13.9111L21.2824 12.2035C23.4602 10.9462 24.2064 8.16139 22.9491 5.98356C21.6917 3.80573 18.9069 3.05954 16.7291 4.31692L13.7715 6.02446L12.064 3.06702C10.8067 0.889189 8.02188 0.14301 5.84404 1.40038Z" fill="#E39CAE"/>
</svg>
