<svg width="45" height="46" viewBox="0 0 45 46" fill="none" xmlns="http://www.w3.org/2000/svg">
<path id="4" fill-rule="evenodd" clip-rule="evenodd" d="M34.731 1.49382C30.4685 -0.967087 25.0182 0.493316 22.5573 4.75574L19.2155 10.5439L13.4275 7.20219C9.16503 4.74128 3.71469 6.20169 1.25378 10.4641C-1.20713 14.7265 0.253275 20.1769 4.5157 22.6378L10.3037 25.9795L6.96173 31.768C4.50082 36.0305 5.96123 41.4808 10.2237 43.9417C14.4861 46.4026 19.9364 44.9422 22.3973 40.6798L25.7393 34.8913L31.528 38.2333C35.7904 40.6942 41.2408 39.2338 43.7017 34.9714C46.1626 30.709 44.7022 25.2587 40.4398 22.7977L34.6511 19.4557L37.9929 13.6675C40.4538 9.40507 38.9934 3.95473 34.731 1.49382Z" fill="#FEA68B"/>
</svg>
