<svg width="25" height="24" viewBox="0 0 25 24" fill="none" xmlns="http://www.w3.org/2000/svg">
<g id="Group">
<path id="Vector" d="M12.9495 22C7.42646 22 2.94946 17.523 2.94946 12C2.94946 6.477 7.42646 2 12.9495 2C18.4725 2 22.9495 6.477 22.9495 12C22.9495 17.523 18.4725 22 12.9495 22ZM12.9495 20C15.0712 20 17.106 19.1571 18.6063 17.6569C20.1066 16.1566 20.9495 14.1217 20.9495 12C20.9495 9.87827 20.1066 7.84344 18.6063 6.34315C17.106 4.84285 15.0712 4 12.9495 4C10.8277 4 8.7929 4.84285 7.29261 6.34315C5.79232 7.84344 4.94946 9.87827 4.94946 12C4.94946 14.1217 5.79232 16.1566 7.29261 17.6569C8.7929 19.1571 10.8277 20 12.9495 20ZM11.9525 16L7.70946 11.757L9.12346 10.343L11.9525 13.172L17.6085 7.515L19.0235 8.929L11.9525 16Z" fill="#8C4CF5"/>
</g>
</svg>
