<svg width="61" height="60" viewBox="0 0 61 60" fill="none" xmlns="http://www.w3.org/2000/svg">
<path id="Vector" d="M50.92 18.18C50.6977 17.8246 50.3785 17.5401 50 17.36V11C50 8.08262 48.8411 5.28473 46.7782 3.22183C44.7153 1.15893 41.9174 0 39 0C36.0826 0 33.2847 1.15893 31.2218 3.22183C29.1589 5.28473 28 8.08262 28 11V50C28 52.1217 27.1571 54.1566 25.6569 55.6569C24.1566 57.1571 22.1217 58 20 58C17.8783 58 15.8434 57.1571 14.3431 55.6569C12.8429 54.1566 12 52.1217 12 50V45.26L21.87 27.49V27.42V27.34C21.9313 27.2344 21.9752 27.1196 22 27V1C22 0.734784 21.8946 0.48043 21.7071 0.292893C21.5196 0.105357 21.2652 0 21 0H1C0.734784 0 0.48043 0.105357 0.292893 0.292893C0.105357 0.48043 0 0.734784 0 1V27C0.007807 27.1095 0.0313836 27.2173 0.0699999 27.32V27.4V27.47L10 45.26V50C10 52.6522 11.0536 55.1957 12.9289 57.0711C14.8043 58.9464 17.3478 60 20 60C22.6522 60 25.1957 58.9464 27.0711 57.0711C28.9464 55.1957 30 52.6522 30 50V11C30 8.61305 30.9482 6.32387 32.636 4.63604C34.3239 2.94821 36.6131 2 39 2C41.3869 2 43.6761 2.94821 45.364 4.63604C47.0518 6.32387 48 8.61305 48 11V17.36C47.6215 17.5401 47.3023 17.8246 47.08 18.18L38.15 32.47C38.0744 32.5929 38.0264 32.7308 38.0091 32.8741C37.9918 33.0173 38.0058 33.1626 38.05 33.3L42.66 48.07C42.4683 48.1393 42.3024 48.2655 42.1844 48.4317C42.0665 48.5979 42.0021 48.7962 42 49V59C42 59.2652 42.1054 59.5196 42.2929 59.7071C42.4804 59.8946 42.7348 60 43 60H55C55.2652 60 55.5196 59.8946 55.7071 59.7071C55.8946 59.5196 56 59.2652 56 59V49C55.9979 48.7962 55.9335 48.5979 55.8156 48.4317C55.6976 48.2655 55.5317 48.1393 55.34 48.07L60 33.3C60.0442 33.1626 60.0582 33.0173 60.0409 32.8741C60.0236 32.7308 59.9756 32.5929 59.9 32.47L50.92 18.18ZM17 2H20V26H17V2ZM12 2H15V26H12V2ZM7 2H10V26H7V2ZM2 2H5V26H2V2ZM2.7 28H19.3L14.3 37H7.7L2.7 28ZM8.81 39H13.19L11 42.94L8.81 39ZM49 32C49.1978 32 49.3911 32.0586 49.5556 32.1685C49.72 32.2784 49.8482 32.4346 49.9239 32.6173C49.9996 32.8 50.0194 33.0011 49.9808 33.1951C49.9422 33.3891 49.847 33.5673 49.7071 33.7071C49.5673 33.847 49.3891 33.9422 49.1951 33.9808C49.0011 34.0194 48.8 33.9996 48.6173 33.9239C48.4346 33.8482 48.2784 33.72 48.1685 33.5556C48.0586 33.3911 48 33.1978 48 33C48 32.7348 48.1054 32.4804 48.2929 32.2929C48.4804 32.1054 48.7348 32 49 32ZM54 58H44V50H54V58ZM53.26 48H44.74L40.09 33.14L48 20.49V30.18C47.3328 30.4159 46.7704 30.8801 46.4124 31.4905C46.0543 32.1009 45.9235 32.8182 46.0432 33.5157C46.1629 34.2132 46.5253 34.846 47.0663 35.3021C47.6074 35.7582 48.2923 36.0084 49 36.0084C49.7077 36.0084 50.3926 35.7582 50.9337 35.3021C51.4747 34.846 51.8371 34.2132 51.9568 33.5157C52.0765 32.8182 51.9457 32.1009 51.5876 31.4905C51.2296 30.8801 50.6672 30.4159 50 30.18V20.49L57.91 33.14L53.26 48Z" fill="#474F62"/>
</svg>
