<svg width="22" height="21" viewBox="0 0 22 21" fill="none" xmlns="http://www.w3.org/2000/svg">
<g clip-path="url(#clip0_110_158)">
<path fill-rule="evenodd" clip-rule="evenodd" d="M11.0091 0C4.92135 0 0 4.73229 0 10.5868C0 15.2666 3.15328 19.2279 7.52772 20.63C8.07463 20.7354 8.27497 20.4022 8.27497 20.1219C8.27497 19.8765 8.25694 19.0352 8.25694 18.1586C5.19447 18.7898 4.55674 16.8966 4.55674 16.8966C4.06458 15.6697 3.33536 15.3543 3.33536 15.3543C2.33302 14.7058 3.40837 14.7058 3.40837 14.7058C4.52024 14.7759 5.10366 15.7925 5.10366 15.7925C6.08775 17.4049 7.67352 16.9493 8.31147 16.6688C8.40251 15.9852 8.69434 15.512 9.00419 15.2491C6.56165 15.0037 3.9918 14.0923 3.9918 10.0258C3.9918 8.86895 4.42897 7.92249 5.12169 7.18641C5.01239 6.92355 4.62953 5.83663 5.23121 4.38188C5.23121 4.38188 6.16076 4.10139 8.25671 5.46859C9.15406 5.23685 10.0795 5.11896 11.0091 5.11797C11.9387 5.11797 12.8862 5.24079 13.7613 5.46859C15.8574 4.10139 16.787 4.38188 16.787 4.38188C17.3887 5.83663 17.0056 6.92355 16.8963 7.18641C17.6073 7.92249 18.0264 8.86895 18.0264 10.0258C18.0264 14.0923 15.4565 14.9861 12.9958 15.2491C13.3969 15.5821 13.743 16.213 13.743 17.2122C13.743 18.6319 13.725 19.7713 13.725 20.1217C13.725 20.4022 13.9255 20.7354 14.4722 20.6302C18.8467 19.2277 21.9999 15.2666 21.9999 10.5868C22.018 4.73229 17.0786 0 11.0091 0Z" fill="url(#paint0_linear_110_158)"/>
</g>
<defs>
<linearGradient id="paint0_linear_110_158" x1="22" y1="-3.44167" x2="-8.28845" y2="6.83478" gradientUnits="userSpaceOnUse">
<stop stop-color="#F1B8D2" stop-opacity="0.74"/>
<stop offset="1" stop-color="#95BBE9" stop-opacity="0.79"/>
</linearGradient>
<clipPath id="clip0_110_158">
<rect width="22" height="21" fill="white"/>
</clipPath>
</defs>
</svg>
