<svg width="22" height="21" viewBox="0 0 22 21" fill="none" xmlns="http://www.w3.org/2000/svg">
<g clip-path="url(#clip0_111_163)">
<path d="M11 1.89082C13.9391 1.89082 14.2871 1.90312 15.443 1.95234C16.5172 1.99746 17.0973 2.16973 17.484 2.31328C17.9953 2.50195 18.3648 2.73164 18.7473 3.09668C19.134 3.46582 19.3703 3.81445 19.568 4.30254C19.7184 4.67168 19.8988 5.22949 19.9461 6.25078C19.9977 7.3582 20.0105 7.69043 20.0105 10.4918C20.0105 13.2973 19.9977 13.6295 19.9461 14.7328C19.8988 15.7582 19.7184 16.3119 19.568 16.6811C19.3703 17.1691 19.1297 17.5219 18.7473 17.8869C18.3605 18.2561 17.9953 18.4816 17.484 18.6703C17.0973 18.8139 16.5129 18.9861 15.443 19.0312C14.2828 19.0805 13.9348 19.0928 11 19.0928C8.06094 19.0928 7.71289 19.0805 6.55703 19.0312C5.48281 18.9861 4.90273 18.8139 4.51602 18.6703C4.00469 18.4816 3.63516 18.252 3.25273 17.8869C2.86602 17.5178 2.62969 17.1691 2.43203 16.6811C2.28164 16.3119 2.10117 15.7541 2.05391 14.7328C2.00234 13.6254 1.98945 13.2932 1.98945 10.4918C1.98945 7.68633 2.00234 7.3541 2.05391 6.25078C2.10117 5.22539 2.28164 4.67168 2.43203 4.30254C2.62969 3.81445 2.87031 3.46172 3.25273 3.09668C3.63945 2.72754 4.00469 2.50195 4.51602 2.31328C4.90273 2.16973 5.48711 1.99746 6.55703 1.95234C7.71289 1.90312 8.06094 1.89082 11 1.89082ZM11 0C8.01367 0 7.63984 0.0123047 6.4668 0.0615234C5.29805 0.110742 4.49453 0.291211 3.79844 0.549609C3.07227 0.820312 2.45781 1.17715 1.84766 1.76367C1.2332 2.34609 0.859375 2.93262 0.575781 3.62168C0.305078 4.29023 0.116016 5.05312 0.0644531 6.16875C0.0128906 7.29258 0 7.64941 0 10.5C0 13.3506 0.0128906 13.7074 0.0644531 14.8271C0.116016 15.9428 0.305078 16.7098 0.575781 17.3742C0.859375 18.0674 1.2332 18.6539 1.84766 19.2363C2.45781 19.8187 3.07227 20.1797 3.79414 20.4463C4.49453 20.7047 5.29375 20.8852 6.4625 20.9344C7.63555 20.9836 8.00937 20.9959 10.9957 20.9959C13.982 20.9959 14.3559 20.9836 15.5289 20.9344C16.6977 20.8852 17.5012 20.7047 18.1973 20.4463C18.9191 20.1797 19.5336 19.8187 20.1437 19.2363C20.7539 18.6539 21.132 18.0674 21.4113 17.3783C21.682 16.7098 21.8711 15.9469 21.9227 14.8313C21.9742 13.7115 21.9871 13.3547 21.9871 10.5041C21.9871 7.65352 21.9742 7.29668 21.9227 6.17695C21.8711 5.06133 21.682 4.29434 21.4113 3.62988C21.1406 2.93262 20.7668 2.34609 20.1523 1.76367C19.5422 1.18125 18.9277 0.820312 18.2059 0.553711C17.5055 0.295312 16.7063 0.114844 15.5375 0.065625C14.3602 0.0123047 13.9863 0 11 0Z" fill="url(#paint0_linear_111_163)"/>
<path d="M11 5.10645C7.88047 5.10645 5.34961 7.52227 5.34961 10.5C5.34961 13.4777 7.88047 15.8936 11 15.8936C14.1195 15.8936 16.6504 13.4777 16.6504 10.5C16.6504 7.52227 14.1195 5.10645 11 5.10645ZM11 13.9986C8.97617 13.9986 7.33477 12.4318 7.33477 10.5C7.33477 8.56816 8.97617 7.00137 11 7.00137C13.0238 7.00137 14.6652 8.56816 14.6652 10.5C14.6652 12.4318 13.0238 13.9986 11 13.9986Z" fill="url(#paint1_linear_111_163)"/>
<path d="M18.193 4.89315C18.193 5.59042 17.6 6.15233 16.8738 6.15233C16.1434 6.15233 15.5547 5.58632 15.5547 4.89315C15.5547 4.19589 16.1477 3.63397 16.8738 3.63397C17.6 3.63397 18.193 4.19999 18.193 4.89315Z" fill="url(#paint2_linear_111_163)"/>
</g>
<defs>
<linearGradient id="paint0_linear_111_163" x1="21.9871" y1="-3.49931" x2="-8.3896" y2="6.63138" gradientUnits="userSpaceOnUse">
<stop stop-color="#F1B8D2" stop-opacity="0.74"/>
<stop offset="1" stop-color="#95BBE9" stop-opacity="0.79"/>
</linearGradient>
<linearGradient id="paint1_linear_111_163" x1="16.6504" y1="3.3086" x2="1.0388" y2="8.51713" gradientUnits="userSpaceOnUse">
<stop stop-color="#F1B8D2" stop-opacity="0.74"/>
<stop offset="1" stop-color="#95BBE9" stop-opacity="0.79"/>
</linearGradient>
<linearGradient id="paint2_linear_111_163" x1="18.193" y1="3.21425" x2="14.5483" y2="4.43023" gradientUnits="userSpaceOnUse">
<stop stop-color="#F1B8D2" stop-opacity="0.74"/>
<stop offset="1" stop-color="#95BBE9" stop-opacity="0.79"/>
</linearGradient>
<clipPath id="clip0_111_163">
<rect width="22" height="21" fill="white"/>
</clipPath>
</defs>
</svg>
