<svg width="542" height="348" viewBox="0 0 542 348" fill="none" xmlns="http://www.w3.org/2000/svg">
<path d="M465.8 48.04C465.8 55.5 463.7 62.46 460.05 68.38C459.02 70.05 457.87 71.64 456.61 73.12C453.76 76.48 450.36 79.35 446.53 81.58C443.49 83.36 440.19 84.73 436.7 85.63C433.59 86.43 430.33 86.86 426.97 86.86H399.34V9.19995H426.97C428.15 9.19995 429.32 9.24999 430.47 9.35999C432.6 9.54999 434.68 9.91005 436.7 10.4301C440.19 11.3301 443.49 12.71 446.53 14.48C450.35 16.71 453.76 19.5799 456.61 22.9399C457.87 24.4299 459.02 26.0101 460.05 27.6801C463.69 33.5901 465.8 40.56 465.8 48.02V48.04Z" fill="#D3EBFA"/>
<path d="M416.79 9.37H406.71V86.87H416.79V9.37Z" fill="#C3E6FA"/>
<path d="M399.96 9.20996V86.87H396.67C394.35 86.87 392.08 86.67 389.88 86.28V9.81006C390.96 9.62006 392.06 9.38003 393.17 9.28003L399.95 9.21997L399.96 9.20996Z" fill="#B8DEF5"/>
<path d="M436.7 10.4399V85.64C433.59 86.44 430.33 86.87 426.97 86.87H426.62V9.37H430.47C432.6 9.56 434.68 9.91994 436.7 10.4399Z" fill="#C3E6FA"/>
<path d="M456.61 22.96V73.12C453.76 76.48 450.36 79.35 446.53 81.58V14.49C450.35 16.72 453.76 19.59 456.61 22.95V22.96Z" fill="#C3E6FA"/>
<path d="M460.05 27.71C463.69 33.62 465.8 40.59 465.8 48.05C465.8 55.51 463.7 62.47 460.05 68.39V27.71Z" fill="#C3E6FA"/>
<path d="M365.56 108.63C369.51 110.73 373.85 112.64 378.65 114.33H349.57V97.54C354.34 101.7 359.58 105.45 365.56 108.63Z" fill="#C3E6FA"/>
<path d="M389.88 9.81006V86.28C381.88 84.87 374.72 81.01 369.21 75.5C362.18 68.47 357.84 58.77 357.84 48.04C357.84 28.91 371.67 13.01 389.88 9.80005V9.81006Z" fill="#C3E6FA"/>
<path d="M239.82 5.46997V114.33H129.95V7.93994C133.42 6.96994 136.98 6.09004 140.61 5.29004C146.4 4.02004 152.4 2.98005 158.61 2.18005C168.3 0.930054 178.5 0.280029 189.24 0.280029C196.29 0.280029 202.93 0.519971 209.19 0.969971C213.43 1.27997 217.49 1.68005 221.4 2.18005C227.99 3.02005 234.11 4.12997 239.83 5.46997H239.82Z" fill="#C3E6FA"/>
<path d="M221.39 2.18005H158.6C168.29 0.930054 178.49 0.280029 189.23 0.280029C196.28 0.280029 202.92 0.519971 209.18 0.969971C213.42 1.27997 217.48 1.68005 221.39 2.18005Z" fill="#ACDEFA"/>
<path d="M231.95 10.48H137.81V18.65H231.95V10.48Z" fill="#ACDEFA"/>
<path d="M231.95 26.9399H137.81V35.11H231.95V26.9399Z" fill="#ACDEFA"/>
<path d="M231.95 43.41H137.81V51.58H231.95V43.41Z" fill="#ACDEFA"/>
<path d="M231.95 59.88H137.81V68.05H231.95V59.88Z" fill="#ACDEFA"/>
<path d="M231.95 76.35H137.81V84.52H231.95V76.35Z" fill="#ACDEFA"/>
<path d="M231.95 92.8199H137.81V100.99H231.95V92.8199Z" fill="#ACDEFA"/>
<path d="M339.45 87.4301L336.38 114.33H209.18V0.969971C213.42 1.27997 217.48 1.68005 221.39 2.18005C227.98 3.02005 234.1 4.12997 239.82 5.46997C245.09 6.69997 250 8.13999 254.6 9.73999C262.44 12.47 269.38 15.71 275.59 19.33C280.62 22.26 285.18 25.43 289.37 28.79C293.19 31.85 296.69 35.06 299.97 38.38C303.02 41.46 305.86 44.63 308.57 47.84C311.23 51 313.76 54.2101 316.22 57.4301C318.63 60.5901 320.96 63.75 323.28 66.89C324.38 68.38 325.48 69.86 326.58 71.34C329.78 75.63 336.06 83.4001 339.45 87.4301Z" fill="#D3EBFA"/>
<path d="M275.59 19.3199H218.77V9.72998H254.6C262.44 12.46 269.38 15.6999 275.59 19.3199Z" fill="#C3E6FA"/>
<path d="M299.97 38.37H218.73V28.78H289.36C293.18 31.84 296.68 35.05 299.96 38.37H299.97Z" fill="#C3E6FA"/>
<path d="M316.22 57.42H218.71V47.83H308.58C311.24 50.99 313.77 54.2 316.23 57.42H316.22Z" fill="#C3E6FA"/>
<path d="M326.58 71.33V76.47H218.67V66.88H323.28C324.38 68.37 325.48 69.85 326.58 71.33Z" fill="#C3E6FA"/>
<path d="M326.56 85.9399H218.65V95.53H326.56V85.9399Z" fill="#C3E6FA"/>
<path d="M71.3199 36.9399V114.33H34.33V76.53C35.18 75.27 36.04 74.03 36.92 72.79C38.58 70.46 40.3 68.17 42.08 65.91C44.36 63.02 46.74 60.1901 49.22 57.4301C51.33 55.0901 53.51 52.79 55.77 50.55C58.71 47.63 61.78 44.7999 64.99 42.0699C67.04 40.3199 69.1499 38.6099 71.3199 36.9399Z" fill="#D3EBFA"/>
<path d="M84.84 27.5699V114.32H14.6899C16.4599 109.74 18.4199 105.18 20.5699 100.68C22.5799 96.4501 24.76 92.27 27.12 88.15C28.44 85.83 29.82 83.54 31.25 81.27C32.25 79.68 33.28 78.1 34.34 76.53C35.19 75.27 36.0501 74.03 36.9301 72.79C38.5901 70.46 40.31 68.17 42.09 65.91C44.37 63.02 46.75 60.1901 49.23 57.4301C51.34 55.0901 53.52 52.79 55.78 50.55C58.72 47.63 61.79 44.7999 65 42.0699C67.05 40.3199 69.16 38.6099 71.33 36.9399C73.4 35.3499 75.5199 33.79 77.6899 32.28C80.0199 30.66 82.4 29.0899 84.85 27.5699H84.84Z" fill="#C3E6FA"/>
<path d="M71.3199 36.9399V42.0699H64.99C67.04 40.3199 69.1499 38.6099 71.3199 36.9399Z" fill="#ACDEFA"/>
<path d="M71.3199 50.54V57.42H49.22C51.33 55.08 53.51 52.78 55.77 50.54H71.3101H71.3199Z" fill="#ACDEFA"/>
<path d="M71.3199 65.9V72.78H36.92C38.58 70.45 40.3 68.16 42.08 65.9H71.3199Z" fill="#ACDEFA"/>
<path d="M71.3199 81.27V88.15H27.11C28.43 85.83 29.81 83.54 31.24 81.27H71.3199Z" fill="#ACDEFA"/>
<path d="M71.3199 96.63H23.88V103.51H71.3199V96.63Z" fill="#ACDEFA"/>
<path d="M140.61 5.29004V114.33H77.6801V32.28C80.0101 30.66 82.39 29.0899 84.84 27.5699C89.29 24.8099 93.93 22.2201 98.79 19.8101C105.19 16.6401 111.94 13.8 119.07 11.33C122.61 10.1 126.23 8.97005 129.95 7.93005C133.42 6.96005 136.98 6.08003 140.61 5.28003V5.29004Z" fill="#D3EBFA"/>
<path d="M133.23 11.34V19.8199H98.78C105.18 16.6499 111.93 13.81 119.06 11.34H133.23Z" fill="#C3E6FA"/>
<path d="M133.2 28.79H84.9V37.27H133.2V28.79Z" fill="#C3E6FA"/>
<path d="M133.17 46.24H84.87V54.72H133.17V46.24Z" fill="#C3E6FA"/>
<path d="M133.14 63.6899H84.84V72.17H133.14V63.6899Z" fill="#C3E6FA"/>
<path d="M133.11 81.14H84.8101V89.62H133.11V81.14Z" fill="#C3E6FA"/>
<path d="M133.08 98.6H84.78V107.08H133.08V98.6Z" fill="#C3E6FA"/>
<path d="M20.5601 100.68V114.32H14.6801C16.4501 109.74 18.4101 105.18 20.5601 100.68Z" fill="#D3EBFA"/>
<path d="M435.77 122.38C403.26 122.38 381.3 117.01 365.56 108.63C365.31 108.5 365.06 108.36 364.81 108.22V301.01H517.33C558.96 251.86 555.16 122.37 435.78 122.37L435.77 122.38Z" fill="#98C0FA"/>
<path d="M380.05 118.14H258.13V109.05H144.69V101.18H40.47V91.96H24.99C8.21999 122.99 0.939941 157.22 0.939941 186.7C0.939941 237.08 13.73 278.43 34.42 301.01H380.05V118.13V118.14Z" fill="#B9DDFA"/>
<path d="M87.75 147.94H59.38V158.58H87.75V147.94Z" fill="#ACD7FA"/>
<path d="M100.37 135.43H72V146.07H100.37V135.43Z" fill="#ACD7FA"/>
<path d="M380.05 122.55V114.81C374.69 113.01 369.89 110.93 365.56 108.63C361.19 106.31 357.22 103.68 353.54 100.81H281.98V92.33H176.16V84.96H76.12V74.14H35.97C29.41 83.53 23.86 93.41 19.24 103.52H26.09V122.55H380.05Z" fill="#89C1FA"/>
<path d="M40.47 91.96L76.11 74.14V84.95L40.47 100.81V91.96Z" fill="#7FB2FA"/>
<path d="M144.69 101.18L176.15 84.95V92.33L144.69 109.04V101.18Z" fill="#7FB2FA"/>
<path d="M258.13 109.04L281.97 92.33V100.81L258.13 118.14V109.04Z" fill="#7FB2FA"/>
<path d="M238.1 132.88V140.75H380.05V125.39H251.25V118.51H138.18V109.66H34.33V100.81H20.51C18.09 105.89 15.92 111.04 13.98 116.21H20.8199V125.39H125.78V132.89H238.11L238.1 132.88Z" fill="#ACD7FA"/>
<path d="M245.72 126.74V135.83H380.05V118.13H258.13V109.04H144.69V101.17H40.47V91.95H24.99C21.97 97.54 19.25 103.24 16.83 108.99H27.4399V117.51H131.66V126.73H245.71L245.72 126.74Z" fill="#98C7FA"/>
<path d="M267.97 154.27H150.35V287H267.97V154.27Z" fill="#98C7FA"/>
<path d="M263.78 158.45H154.52V282.82H263.78V158.45Z" fill="#ACD7FA"/>
<path d="M210.69 158.45H207.62V282.82H210.69V158.45Z" fill="#98C7FA"/>
<path d="M152.19 219.1V222.17H265.5V219.1H152.19Z" fill="#98C7FA"/>
<path d="M310.59 106.53H360.14C360.65 106.53 361.16 106.49 361.65 106.4C352.96 101.14 345.86 94.62 339.45 87.42C325.83 87.55 312.3 87.11 298.87 86.04V91.33C298.87 95.25 300.02 98.82 301.9 101.52C304.04 104.59 307.15 106.52 310.59 106.52V106.53Z" fill="#ACD7FA"/>
<path d="M347.47 95.65C344.65 93.04 341.99 90.2901 339.45 87.4301C325.83 87.5601 312.3 87.12 298.87 86.05C305.83 95.86 330.3 96.52 347.47 95.65Z" fill="#98C7FA"/>
<path d="M310.59 106.53H360.14C360.65 106.53 361.16 106.49 361.65 106.4C358.11 104.26 354.84 101.91 351.76 99.39C337.19 99.78 312.09 100.7 301.9 101.53C304.04 104.6 307.15 106.53 310.59 106.53Z" fill="#98C7FA"/>
<path d="M283.59 73.45C285.89 77.82 292.25 80.1601 292.25 80.1601C292.25 80.1601 289.34 81.2401 289.24 83.1701C289.17 84.5601 290.57 85.6701 291.19 86.1601C296.87 90.6501 318.04 91.7601 320.79 87.6301C320.95 87.3901 321.04 87.14 321.07 86.87C321.16 86.12 320.75 85.06 318.86 83.62C324.43 86.67 325.4 81.48 323.99 79.75C323.23 78.83 322.2 79.2101 321.44 79.7701C322.31 78.6901 323.61 76.94 324.71 75.1C324.78 74.99 324.84 74.8801 324.91 74.7701C325.12 74.4101 325.32 74.05 325.51 73.69C325.95 72.84 326.31 72.0101 326.53 71.2601C325.65 70.0801 324.77 68.89 323.88 67.69C322.22 67.92 320.74 69.3901 319.92 70.3901C319.65 70.7201 319.45 70.9901 319.33 71.1601C319.44 70.9901 319.63 70.7001 319.85 70.3101C320.59 69.0501 321.71 66.83 321.78 64.85C320.86 63.61 319.94 62.36 319.01 61.12C315.91 60.2 313.98 62.5501 313.06 64.1601C313.95 62.1101 315.36 58.1501 314.5 55.1801C313.75 54.2201 313 53.2501 312.23 52.2901C307.95 49.9401 306.09 58.7201 305.58 61.7701C305.99 58.7101 306.78 49.58 302.16 47.72C296.59 45.48 297.56 58.9101 297.56 58.9101C297.56 58.9101 294.47 51.28 291.94 55.35C290.17 58.19 292.45 64.14 293.98 67.49C291.92 63.68 287.61 57.1701 284.3 62.1701C282.28 65.2201 283.54 67.79 285.54 69.71C283.62 69.82 282.42 71.23 283.6 73.46L283.59 73.45Z" fill="#ACD7FA"/>
<path d="M320.79 87.6401C321.02 87.9501 321.27 88.2501 321.54 88.5401C321.69 88.7001 321.84 88.85 322.01 89C322.54 89.48 323.54 89.9701 324.84 90.4101C327.36 89.0501 328.59 87.21 329.02 85.23C329.48 83.06 330.2 78.6001 329.58 75.3101C328.58 74.0001 327.59 72.68 326.6 71.35C325.62 71.09 324.53 71.19 323.99 71.82C323.57 72.31 323.21 73.4401 323.19 73.5201C323.09 73.9101 323 74.33 322.92 74.75C322.53 76.66 322.24 78.52 322.05 76.85C321.95 75.97 321.71 75.2801 321.28 74.7601C320.2 73.4301 317.92 73.17 313.74 73.46C307.91 73.87 313.92 79.3601 312.15 82.9001C310.38 86.4401 309.85 81.6 307.02 79.46C304.19 77.32 305.25 80.3801 304.19 84.6501C303.13 88.9201 291.2 86.1801 291.2 86.1801C296.88 90.6701 318.05 91.7801 320.8 87.6501L320.79 87.6401Z" fill="#98C7FA"/>
<path d="M304.59 86.4101C300.94 85.8901 302.69 75.67 299.13 72.99C295.56 70.31 295.76 69.1701 297.02 64.3101C297.62 62.0001 297.21 59.26 296.62 57.01C295.51 55.06 293.6 52.68 291.94 55.36C290.17 58.2 292.45 64.15 293.98 67.5C291.92 63.69 287.61 57.1801 284.3 62.1801C282.28 65.2301 283.54 67.8 285.54 69.72C283.62 69.83 282.42 71.24 283.6 73.47C285.9 77.84 292.26 80.1801 292.26 80.1801C292.26 80.1801 289.35 81.26 289.25 83.19C289.18 84.58 290.58 85.6901 291.2 86.1801C294.17 88.5301 301.38 89.9501 307.98 90.1801C307.54 88.2201 306.06 86.6201 304.6 86.4101H304.59Z" fill="#90BAFA"/>
<path d="M300.89 65.52C300.89 65.52 303.95 61.72 302.3 61.18C300.65 60.64 300.3 64.1599 300.18 63.3499C300.06 62.5399 298.18 58.49 297.94 61.12C297.7 63.75 299.83 65.11 300.89 65.52Z" fill="#98C7FA"/>
<path d="M311.26 71.2099C311.26 70.9499 314.09 68.51 312.67 68.17C311.26 67.83 310.69 70.4699 310.5 69.6899C310.31 68.9099 306.89 65.98 308.07 68.8C309.25 71.63 311.25 71.2099 311.25 71.2099H311.26Z" fill="#98C7FA"/>
<path d="M296.5 84.34C296.23 84.24 291.48 84.0101 292.18 83.0501C292.88 82.0901 294.55 82.71 294.55 82.4C294.55 82.09 292.43 79.96 293.14 79.15C293.85 78.34 295.53 80.8101 295.53 80.8101C295.53 80.8101 294.65 77.8301 296.06 77.9301C297.47 78.0301 297.12 81.49 297.21 81.13C297.3 80.78 299.07 78.7401 299.6 79.6601C300.13 80.5801 296.51 84.34 296.51 84.34H296.5Z" fill="#ACD7FA"/>
<path d="M142.31 72.38V77.67C142.31 86.06 137.06 92.86 130.59 92.86H81.04C77.59 92.86 74.49 90.93 72.35 87.86C70.47 85.17 69.3199 81.59 69.3199 77.67V72.38C93.3399 74.29 117.69 74.21 142.31 72.38Z" fill="#ACD7FA"/>
<path d="M142.31 72.38V77.67C142.31 86.06 137.06 92.86 130.59 92.86H81.04C77.59 92.86 74.49 90.93 72.35 87.86C86.95 86.67 132.14 85.2899 133.15 85.5699C134.37 85.9099 135.63 80.4301 135.63 80.4301C135.63 80.4301 80.3899 87.97 69.3199 72.37C93.3399 74.28 117.69 74.2 142.31 72.37V72.38Z" fill="#8FC3FA"/>
<path d="M91.24 73.96C91.4 73.72 91.4901 73.47 91.5201 73.2C91.6101 72.45 91.2001 71.3899 89.3101 69.95C94.8801 73 95.85 67.81 94.44 66.08C93.68 65.16 92.6501 65.54 91.8901 66.1C92.7601 65.02 94.0601 63.2701 95.1601 61.4301C95.2301 61.3201 95.29 61.21 95.36 61.1C95.57 60.74 95.77 60.38 95.96 60.02C97.19 57.64 97.81 55.37 96.44 54.5C94 52.95 91.5301 55.31 90.3701 56.72C90.1001 57.05 89.9001 57.32 89.7801 57.49C89.8901 57.32 90.0801 57.03 90.3001 56.64C91.4201 54.72 93.4501 50.5401 91.2601 48.4301C90.9601 48.1401 90.58 47.8901 90.1 47.6801C86.61 46.2001 84.4801 48.76 83.5001 50.48C84.7301 47.66 86.94 41.23 82.85 38.72C78.43 36.01 76.5301 45 76.0201 48.09C76.3801 45.37 77.04 37.8801 73.97 34.9301C71.98 36.4001 70.0301 37.91 68.1301 39.45C67.8001 42.33 68.0001 45.23 68.0001 45.23C68.0001 45.23 67.02 42.8201 65.72 41.4301C64.37 42.5601 63.0501 43.72 61.7501 44.88C61.9001 47.82 63.3401 51.45 64.4201 53.8C63.2301 51.59 61.28 48.47 59.2 47.22C57.36 48.95 55.5601 50.71 53.8101 52.5C54.0901 53.83 54.93 55.02 55.97 56.02C54.05 56.13 52.8501 57.54 54.0301 59.77C56.3301 64.14 62.69 66.48 62.69 66.48C62.69 66.48 59.7801 67.56 59.6801 69.49C59.6101 70.88 61.0101 71.99 61.6301 72.48C67.3101 76.97 88.48 78.08 91.23 73.95L91.24 73.96Z" fill="#ACD7FA"/>
<path d="M130.89 66.6999C130.15 69.5999 126.83 72.7799 121.96 74.9899C121.28 75.2999 120.56 75.5899 119.82 75.8599C119.06 76.1299 118.58 76.4199 118.2 76.7099C116.83 77.7399 116.67 78.7399 109.77 78.8599C104.98 78.9499 98.94 77.9899 95.29 76.7399C93.99 76.2999 92.9899 75.8099 92.4599 75.3299C92.2999 75.1799 92.14 75.0299 91.99 74.8699C91.72 74.5799 91.47 74.2799 91.24 73.9699C89.24 71.2499 88.85 67.94 88.78 67.52C88.04 62.9 89.72 61.3899 91.73 61.0899C92.27 61.0099 92.83 61.0199 93.37 61.0799C94.01 61.1499 94.63 61.2899 95.16 61.4399C96.05 61.6999 96.7 61.99 96.81 62.03C96.71 61.97 96.15 61.6399 95.36 61.0999C94.86 60.7599 94.27 60.3299 93.64 59.8399C92.54 58.9799 91.34 57.8999 90.37 56.7099C90.35 56.6799 90.33 56.66 90.31 56.63C88.84 54.8 87.89 52.6999 88.61 50.6199C89.18 48.9699 90.17 48.4 91.27 48.42C93.87 48.46 97.12 51.7399 97.22 51.8399C97.06 51.6299 88.84 40.8299 94.18 37.6999C99.42 34.6299 102.58 47.1499 102.75 47.8399C102.63 47.2199 100.84 37.0599 107.26 36.0699C112.37 35.2899 113.33 42.4699 113.5 45.8199C113.65 43.6399 114.66 40.0499 119.63 39.8399C126.73 39.5399 118.45 50.84 118.31 51.03C118.4 50.92 122.58 46.1899 125.03 49.7099C125.1 49.8099 125.17 49.91 125.23 50.01C125.66 50.68 125.94 51.32 126.12 51.92C126.85 54.38 125.83 56.1199 125.83 56.1199H128.57C128.57 56.1199 128.59 56.1199 128.6 56.1199C129.63 56.15 130.38 57.4299 130.71 58.9499C131.08 60.6599 130.9 62.6599 129.96 63.4599C130.27 63.4199 130.59 63.4599 130.82 63.6899C131.48 64.3299 131.07 65.9899 130.89 66.6999Z" fill="#ACD7FA"/>
<path d="M148.86 64.61C148.82 64.79 148.77 64.98 148.72 65.17C146.69 72.49 142 74.26 142 74.26C138.78 80.21 124.61 76.58 121.04 76.17C120.98 76.17 120.93 76.16 120.87 76.15C120.48 76.11 120.13 76.0099 119.82 75.8499C119.23 75.5499 118.79 75.03 118.47 74.36C117.54 72.4 117.65 69.0699 118.4 65.4699C118.92 62.9999 120.47 62.1499 122.03 61.9699C123.7 61.7799 125.36 62.34 125.75 62.49C125.4 62.35 123.96 61.72 122.71 60.48C121.29 59.08 120.09 56.9 120.97 53.77C121.9 50.44 123.73 49.83 125.24 50C126.57 50.15 127.65 50.89 127.69 50.92C127.63 50.82 123.84 44.1999 128.22 43.0899C132.64 41.9699 133.52 45.17 133.52 45.17C133.52 45.17 137.14 36.47 142.01 42.27C145.17 46.04 142.95 49.69 141.01 51.77C143.19 50.09 146.48 48.46 147.23 53.05C147.48 54.55 147.4 55.81 147.12 56.86C146.11 60.71 142.45 61.77 142.45 62.02C142.45 62.07 142.62 62.02 142.92 61.91C143.58 61.67 144.83 61.18 146.03 61.01C147.89 60.74 149.62 61.24 148.87 64.61H148.86Z" fill="#ACD7FA"/>
<path d="M99.46 71.55C99.04 73.54 97.8 75.37 95.28 76.73C93.98 76.29 92.98 75.7999 92.45 75.3199C92.29 75.1699 92.13 75.02 91.98 74.86C91.71 74.57 91.46 74.27 91.23 73.96C88.49 78.09 67.31 76.98 61.63 72.49C61.63 72.49 73.56 75.24 74.62 70.96C75.68 66.69 74.62 63.63 77.45 65.77C80.28 67.91 80.81 72.75 82.58 69.21C84.35 65.67 78.34 60.17 84.17 59.77C88.36 59.48 90.63 59.7399 91.71 61.0699C92.14 61.5899 92.38 62.28 92.48 63.16C92.67 64.83 92.96 62.97 93.35 61.06C93.44 60.64 93.53 60.2199 93.62 59.8299C93.64 59.7599 94 58.63 94.42 58.13C95.17 57.24 96.99 57.39 98.11 58.13C101.36 60.27 100.13 68.35 99.45 71.54L99.46 71.55Z" fill="#98C7FA"/>
<path d="M128.91 63.8199C126.74 67.6899 125.61 70.1899 121.95 74.9899C121.66 75.3699 121.35 75.76 121.03 76.18C120.97 76.18 120.92 76.17 120.86 76.16C120.47 76.12 120.12 76.0199 119.81 75.8599C119.05 76.1299 118.57 76.4199 118.19 76.7099C116.82 77.7399 116.66 78.7399 109.76 78.8599C104.97 78.9499 98.93 77.9899 95.28 76.7399C93.98 76.2999 92.98 75.8099 92.45 75.3299C92.29 75.1799 92.13 75.0299 91.98 74.8699C93.56 73.7499 95.32 72.79 95.66 72.4C96.24 71.73 97.83 71.23 99.45 71.56C100.28 71.73 101.13 72.11 101.85 72.81C103.97 74.84 103.62 70.5699 105.39 67.1099C107.16 63.6499 108.22 67.31 112.11 69.65C116 71.99 112.46 66.29 113.17 63.17C113.88 60.05 116.88 61.1999 118.39 65.4799C119.05 67.3499 120.54 65.1299 122.02 61.9799C122.25 61.4999 122.47 60.9999 122.69 60.4899C124.34 56.6999 125.82 52.35 125.9 52.05L126.1 51.92L127.66 50.93C128.82 50.2 128.61 53.5099 128.58 56.1199C128.56 57.4999 128.59 58.6899 128.9 58.9699C129.78 59.7899 131.73 58.7699 128.9 63.8199H128.91Z" fill="#98C7FA"/>
<path d="M148.86 64.61C148.82 64.79 148.77 64.9801 148.72 65.1701C146.69 72.4901 142 74.26 142 74.26C138.78 80.21 124.61 76.5801 121.04 76.1701C120.98 76.1701 120.93 76.16 120.87 76.15C120.48 76.11 120.13 76.01 119.82 75.85C119.06 76.12 118.58 76.41 118.2 76.7C117.84 75.95 117.8 75.37 117.8 75.37C117.8 75.37 118.05 74.99 118.47 74.36C120.68 71 127.73 60.33 128.92 58.96C129.33 58.49 129.96 58.61 130.71 58.94C132.55 59.73 135.12 61.71 136.87 58.96C138.66 56.16 143.81 56.03 147.1 56.86C146.09 60.71 142.43 61.77 142.43 62.02C142.43 62.02 141.63 65.87 143.58 65.77C144.73 65.71 147.18 64.26 148.85 64.6L148.86 64.61Z" fill="#98C7FA"/>
<path d="M71.34 51.8499C71.34 51.8499 74.4 48.05 72.75 47.51C71.1 46.97 70.75 50.49 70.63 49.68C70.51 48.87 68.63 44.8199 68.39 47.4499C68.15 50.0799 70.28 51.4399 71.34 51.8499Z" fill="#98C7FA"/>
<path d="M109.77 54.49C110.12 53.47 111.53 48.33 110.47 49.21C109.41 50.08 109.06 52.6601 109.06 52.6601C109.06 52.6601 106.35 48.86 106.11 50.83C105.87 52.8 107.88 53.34 107.29 53.34C106.7 53.34 102.1 53.07 103.81 54.49C105.52 55.91 109.77 54.49 109.77 54.49Z" fill="#98C7FA"/>
<path d="M64.27 61.47C64.27 61.47 65.92 57.39 64.27 57.54C62.62 57.68 62.86 59.5 62.86 59.5C62.86 59.5 60.38 55.37 60.27 58.09C60.15 60.8 64.28 61.47 64.28 61.47H64.27Z" fill="#98C7FA"/>
<path d="M81.7099 57.54C81.7099 57.28 84.54 54.8399 83.12 54.4999C81.71 54.1599 81.1399 56.8 80.9499 56.02C80.7599 55.24 77.34 52.31 78.52 55.13C79.7 57.96 81.6999 57.54 81.6999 57.54H81.7099Z" fill="#98C7FA"/>
<path d="M138.29 47.51C138.64 47.1 142.21 46.66 140.78 45.19C139.35 43.72 137.82 45.58 138.29 45.19C138.76 44.8 139.88 41.97 138.2 43.32C136.52 44.67 138.29 47.5201 138.29 47.5201V47.51Z" fill="#98C7FA"/>
<path d="M110.17 62.8299C110.52 62.3199 114.15 60.37 113.18 59.31C112.21 58.25 111.76 59.88 111.76 59.88C111.76 59.88 112.56 57.54 111.19 58.25C109.82 58.96 110.17 62.8299 110.17 62.8299Z" fill="#98C7FA"/>
<path d="M66.95 70.6601C66.68 70.5601 61.93 70.33 62.63 69.37C63.33 68.42 65 69.03 65 68.72C65 68.41 62.88 66.28 63.59 65.47C64.3 64.66 65.98 67.13 65.98 67.13C65.98 67.13 65.1 64.15 66.51 64.25C67.92 64.35 67.57 67.81 67.66 67.45C67.75 67.1 69.5201 65.06 70.0501 65.98C70.5801 66.9 66.96 70.6601 66.96 70.6601H66.95Z" fill="#98C7FA"/>
<path d="M253.22 99.65C253.27 99.92 252.8 100.09 252.47 100.32C251.8 100.78 250.83 101.24 249.62 101.69C241.56 104.66 223.12 106.84 216.46 101.26C216.19 101.04 215.95 100.8 215.72 100.56C215.16 99.95 214.73 99.36 214.05 98.38C213.96 98.25 213.87 98.12 213.77 97.98C213.76 97.96 213.74 97.94 213.73 97.92C213.27 97.26 212.8 96.54 212.34 95.78C210.75 93.19 209.19 90.16 208.28 87.43C207.3 84.48 207.09 81.89 208.41 80.6C208.61 80.4 208.96 80.08 209.46 80.04C210.78 79.93 212.11 81.9 213.2 84.22C214.56 87.1 215.54 90.51 215.7 91.05C215.56 90.54 214.72 87.37 214.11 83.84C213.38 79.66 212.97 74.9699 214.42 73.5699C216.08 71.9699 217.81 77.6799 218.95 82.5699C219.69 85.7599 220.17 88.6099 220.21 88.8299C220.2 88.6199 220.03 85.9099 219.95 82.4599C219.81 76.3599 219.95 67.94 221.71 66.84C223.59 65.66 224.2 75.5799 224.4 82.1999C224.5 85.4199 224.5 87.86 224.5 87.86C224.5 87.86 224.84 85.32 225.45 82.1C226.45 76.86 228.16 69.83 230.29 69.12C232.4 68.42 232.99 75.1499 233.13 80.4599C233.17 82.1499 233.17 83.69 233.16 84.8C233.16 85.74 233.13 86.38 233.13 86.53C233.13 86.38 233.16 85.76 233.21 84.81C233.25 83.94 233.31 82.79 233.38 81.48C233.4 81.11 233.42 80.73 233.45 80.34C233.51 79.26 233.59 78.1 233.67 76.91C234.06 71.45 234.65 65.52 235.43 64.52C236.25 63.47 237.77 69.99 238.97 76.12C239.02 76.38 239.07 76.65 239.12 76.91C239.43 78.54 239.73 80.11 239.97 81.48C240.13 82.39 240.28 83.21 240.39 83.89C240.55 84.85 240.67 85.54 240.72 85.86C240.67 85.56 240.58 84.9299 240.46 84.0699C240.36 83.3399 240.24 82.45 240.13 81.47C239.96 80.06 239.8 78.46 239.71 76.9C239.66 76.07 239.62 75.2499 239.61 74.4599C239.6 73.5399 239.61 72.68 239.69 71.92C239.83 70.44 240.15 69.37 240.76 69.11C241.92 68.6 242.94 72.46 243.72 76.9C243.96 78.28 244.18 79.72 244.38 81.1C244.4 81.22 244.41 81.35 244.43 81.47C244.58 82.57 244.71 83.6299 244.83 84.5799C244.75 83.6399 244.66 82.59 244.59 81.47C244.58 81.22 244.56 80.9699 244.55 80.7099C244.48 79.4899 244.43 78.2 244.42 76.9C244.36 72.02 244.75 66.97 246.37 64.54C250.02 59.07 254.06 76.9 254.06 76.9C255.96 91.42 252.48 95.69 253.23 99.65H253.22Z" fill="#ACD7FA"/>
<path d="M248.08 95.67C248.13 95.43 249.3 81.1499 251.17 78.7299C253.03 76.3199 257.02 75.3399 256.97 76.4699C256.92 77.5999 255.59 93.99 252.53 95.27C249.47 96.55 248.09 95.66 248.09 95.66L248.08 95.67Z" fill="#98C7FA"/>
<path d="M227.07 96.65C227.18 96.24 223.21 89.82 226.11 88.99C229 88.16 231.58 93.65 231.58 93.65C231.58 93.65 231.04 82.25 234.05 85.31C237.05 88.37 239.41 93.86 239.41 93.86C239.41 93.86 237.69 79.58 239.41 81.85C241.13 84.13 243.48 95 243.7 94.38C243.91 93.76 242.61 80.82 245.52 79.68C248.43 78.54 251.74 98 251.74 98L227.09 96.65H227.07Z" fill="#98C7FA"/>
<path d="M253.74 94.08L253.14 99.6801L252.46 105.99H212.41L211.73 100.84L211.06 95.71C225.91 96.81 241.05 95.26 253.74 94.09V94.08Z" fill="#ACD7FA"/>
<path d="M253.15 99.67L252.47 105.98C240.04 107.31 226.53 107.09 212.42 105.98L211.74 100.83C225.29 102.2 241.36 102.52 253.15 99.67Z" fill="#98C7FA"/>
<path d="M235.96 99.27C228.33 99.27 219.98 98.82 212.99 98.3C212.31 98.25 211.82 98.21 211.74 98.21C211.61 98.21 211.51 98.11 211.51 97.99C211.51 97.87 211.61 97.77 211.73 97.77C211.82 97.77 212.17 97.79 213.02 97.86C225.53 98.78 242.39 99.51 251.67 97.78C251.79 97.76 251.91 97.83 251.93 97.95C251.95 98.07 251.87 98.18 251.75 98.2C247.62 98.97 242.01 99.26 235.95 99.26L235.96 99.27Z" fill="#98C7FA"/>
<path d="M301.83 85.49L299.3 108.37C298.88 112.17 295.33 115.06 291.08 115.06H284.67C281.93 115.06 279.48 113.85 277.97 111.98C277.14 110.95 276.6 109.72 276.45 108.38L274.3 88.97L273.92 85.5H301.83V85.49Z" fill="#ACD7FA"/>
<path d="M286.17 61.99V77.9C286.17 77.9 288.8 78.3 288.8 77.9V61.0601L286.17 62V61.99Z" fill="#7FB2FA"/>
<path d="M296.42 61.62C296.47 63.52 295.8 64.6899 295.41 65.2399C293.17 68.4 287.61 68.9899 283.89 67.4699C282.65 66.9599 281.79 66.29 281.3 65.87C281.3 65.87 280.17 65.7 279.16 65.41C278.69 65.28 278.24 65.1199 277.94 64.9399C276.02 63.7999 275.38 60.25 276.9 58.52C278.06 57.2 280.77 56.38 280.77 56.38C280.77 56.38 280.6 54.1 281.45 52.77C282.67 50.87 286.3 50.79 288.16 51C289.06 51.1 290.76 51.29 292.01 52.56C293.02 53.59 293.23 54.7399 293.29 55.2099C293.29 55.2099 297.25 53.84 298.59 56.91C298.63 56.99 298.67 57.08 298.7 57.16C299.71 59.72 296.41 61.62 296.41 61.62H296.42Z" fill="#ACD7FA"/>
<path d="M301.83 85.49L299.3 108.37C298.88 112.17 295.33 115.06 291.08 115.06H284.67C281.93 115.06 279.48 113.85 277.97 111.98C281.69 111.66 287.74 113.27 292.21 110.12C298.46 105.71 296.45 92.08 296.45 92.08C283.58 93.94 279.17 92.47 274.31 88.97L273.93 85.5H301.84L301.83 85.49Z" fill="#8FC3FA"/>
<path d="M302.89 85.0799C302.58 85.2699 302.22 85.42 301.83 85.5C301.83 85.5 302.02 85.64 302.22 85.9C302.06 86.08 301.9 86.24 301.73 86.4C300.74 87.36 299.79 87.96 299.79 87.96C297.83 88.35 295.53 88.68 292.98 88.84C292.54 88.87 292.09 88.89 291.63 88.91C289.48 88.99 287.18 88.93 284.75 88.67C284.45 88.64 284.16 88.6 283.86 88.56C282.84 88.43 281.81 88.27 280.76 88.06C279.75 87.86 278.46 87.26 276.3 86.85C276.06 86.8 275.82 86.76 275.56 86.72C274.99 86.63 274.49 86.58 274.05 86.53C272.37 86.37 271.58 86.42 270.95 85.78C269.69 84.51 270.15 81.6299 271.69 80.6999C272.76 80.0599 274.31 80.37 274.44 79.85C274.51 79.59 274.22 79.37 273.93 79.09C272.55 77.79 274.43 74.1 276.5 73.26C278.57 72.42 280.61 72.01 283.78 73.31C283.78 73.31 286.41 70.3 289.31 71.71C290.66 72.36 291.14 72.82 291.27 73.12C291.55 72.6 292.28 71.84 294.19 71.71C297.13 71.51 301.81 74.7199 299.25 77.8299C299.25 77.8299 301.82 77.25 303.6 80.84C303.77 81.18 303.87 81.52 303.92 81.86C304.08 83.01 303.6 84.1299 302.91 85.0799H302.89Z" fill="#ACD7FA"/>
<path d="M302.89 85.0799C302.58 85.2699 302.22 85.42 301.83 85.5C301.83 85.5 302.02 85.64 302.22 85.9C302.64 86.46 303.07 87.5799 301.45 88.9399C299.64 90.4599 295.02 89.4099 292.98 88.8399C292.36 88.6699 291.98 88.54 291.98 88.54C291.98 88.54 291.86 88.69 291.63 88.9C291.05 89.43 289.77 90.3599 287.87 90.3599C285.97 90.3599 285.13 89.31 284.74 88.66C284.57 88.37 284.5 88.16 284.5 88.16C284.5 88.16 284.33 88.29 283.85 88.56C283.47 88.77 282.89 89.0699 282.05 89.4699C280.14 90.3599 275.54 86.7299 275.54 86.7299C275.8 86.7799 276.04 86.8199 276.28 86.8599C279.21 87.2999 280.8 86.73 281.71 86.06C281.97 85.88 282.16 85.69 282.33 85.5C282.92 84.84 283.13 84.1599 284.28 83.4499C285.97 82.3999 287.87 82.4299 288.8 82.4499C291.43 82.4899 293.36 83.52 294.21 84.05C295.06 83.41 295.69 82.01 296.71 81.38C298.15 80.49 301.73 80.3299 302.13 80.4399C302.82 80.6299 303.53 81.1499 303.9 81.8599C304.06 83.0099 303.58 84.1299 302.89 85.0799Z" fill="#98C7FA"/>
<path d="M296.42 61.62C296.47 63.52 295.8 64.69 295.41 65.24C293.17 68.4 287.61 68.99 283.89 67.47C282.65 66.96 281.79 66.29 281.3 65.87C281.3 65.87 280.17 65.7 279.16 65.41C280.99 65.45 283.04 65.21 283.57 63.87C284.61 61.26 287.87 63 287.87 63C287.87 63 287.89 60.86 290.49 60.66C293.09 60.46 293.69 61.86 294.06 61.73C294.43 61.6 294.88 58.92 296.74 57.92C297.52 57.5 298.19 57.28 298.71 57.17C299.72 59.73 296.42 61.63 296.42 61.63V61.62Z" fill="#98C7FA"/>
<path d="M284.07 78.08C283.99 78.13 282.53 76.2201 281.28 77.1401C280.03 78.0601 281.79 79.97 280.18 79.83C278.57 79.69 275.88 79.33 276.05 80.96C276.22 82.59 278.35 84.43 281.35 81.95C284.35 79.47 288.67 81.81 287.87 79.47C287.07 77.13 285.6 77.03 284.07 78.07V78.08Z" fill="#98C7FA"/>
<path d="M287.87 56.33C287.8 56.12 287.51 54.07 286.48 54.7C285.45 55.34 286.41 56.82 285.09 56.75C283.77 56.68 282.45 56.82 282.6 57.88C282.75 58.94 285.15 58.94 285.23 59.22C285.31 59.5 283.76 60.56 285.23 60.49C286.7 60.42 286.96 60.43 287.97 59.57C288.98 58.72 287.87 56.3101 287.87 56.3101V56.33Z" fill="#98C7FA"/>
<path d="M218.41 52.65C215.27 60.7 205.89 70.39 192.01 73.56C190.18 73.98 187.5 74.57 184.26 74.72C183.75 74.75 183.22 74.76 182.68 74.76C179.5 74.76 175.88 74.31 172.08 72.91C168.78 71.69 157.93 67.72 157.1 59.16C156.54 53.46 160.57 48.93 161.96 47.5L162.01 47.4499C162.01 47.4499 150.73 41.4 153.94 34.63C154.37 33.73 157.67 29.64 158.56 28.86C158.7 28.74 158.85 28.62 158.99 28.5C159.25 28.29 159.52 28.1 159.78 27.93C159.99 27.8 160.2 27.67 160.4 27.56C160.99 27.23 161.59 26.98 162.2 26.79C167.2 25.21 172.65 27.84 175.38 29.49C175.79 29.73 173.67 27.2399 173.41 26.8299C173.41 26.8299 171.54 13.21 188.66 15.4C200.85 16.96 196.94 27.9 196.9 28.03C196.94 28 198.23 27.0199 200.12 26.3299C200.44 26.2199 200.77 26.11 201.12 26.02C201.31 25.97 201.5 25.92 201.7 25.88C202.62 25.68 203.61 25.6 204.64 25.72C206.49 25.93 208.45 26.79 210.23 28.85C211.97 30.86 211.97 32.93 211.12 34.85C209.16 39.28 202.66 42.88 202.66 42.88C202.66 42.88 213.4 42.23 218.71 47.93C220.13 49.46 218.71 51.82 218.39 52.65H218.41Z" fill="#ACD7FA"/>
<path d="M217.47 67.0699C210.42 77.2999 194.67 78.06 184.32 78.56C181.98 78.67 180.67 78.73 178.78 78.56C170.96 77.85 156.99 73.6199 155.16 63.7499C153.69 55.8599 160.6 48.84 161.96 47.51L162.01 47.4599C165.17 49.1899 172.21 52.4399 181.21 51.5799C181.83 51.5199 182.44 51.4399 183.04 51.3499C183.33 51.3099 183.62 51.2599 183.91 51.2099C188.14 50.4299 191.82 48.8299 194.95 46.8799C195.93 46.2699 196.86 45.6299 197.73 44.9599C204.42 39.8799 210.59 35.8499 211.13 34.8699C210.3 34.1099 212.05 35.5799 211.13 34.8699C209.17 39.2999 207.09 43.7199 207.09 43.7199C207.09 43.7199 213.85 41.8599 218.72 47.9499C218.72 47.9499 220.06 49.7399 220.66 52.2199C221.51 55.7099 220.98 61.9699 217.46 67.0799L217.47 67.0699Z" fill="#98C7FA"/>
<path d="M186.96 88.0201C187 89.2901 184.98 89.3401 184.98 88.0501C185 86.8101 185.03 84.58 185.05 83.33C185.2 73.7 185.39 61.03 185.54 51.33L185.63 45.3901C185.63 44.9701 186.32 44.9401 186.32 45.3901C186.52 58.9201 186.76 74.5001 186.96 88.0101V88.0201Z" fill="#7FB2FA"/>
<path d="M185.6 50.25L193.74 42.84C193.81 42.77 193.93 42.78 193.99 42.85C194.06 42.92 194.05 43.03 193.99 43.1L186.05 50.73C185.92 50.86 185.71 50.85 185.59 50.73C185.46 50.6 185.47 50.3901 185.59 50.2701L185.6 50.25Z" fill="#7FB2FA"/>
<path d="M185.65 76.28L197.44 65.55C197.55 65.45 197.71 65.4599 197.81 65.5699C197.9 65.6699 197.9 65.83 197.8 65.93L186.31 76.98C186.12 77.16 185.82 77.16 185.64 76.97C185.46 76.78 185.46 76.48 185.65 76.3V76.28Z" fill="#7FB2FA"/>
<path d="M185.71 59.96L173.48 48.72C173.43 48.67 173.42 48.5901 173.48 48.5401C173.53 48.4901 173.61 48.4801 173.66 48.5301L186.35 59.26C186.55 59.43 186.57 59.7301 186.41 59.9301C186.25 60.1301 185.94 60.15 185.74 59.99C185.74 59.99 185.73 59.99 185.73 59.98L185.71 59.96Z" fill="#7FB2FA"/>
<path d="M183.99 20.87C183.99 20.7 185.86 17.7401 183.99 17.8101C182.12 17.8801 183.35 20.39 183.35 20.39C183.35 20.39 179.27 17.75 180.34 19.34C181.41 20.93 183.99 20.87 183.99 20.87Z" fill="#98C7FA"/>
<path d="M202.39 66.62C202.52 66.51 205.96 65.88 204.64 64.55C203.32 63.22 202.31 65.8299 202.31 65.8299C202.31 65.8299 201.5 61.04 201.05 62.9C200.6 64.76 202.39 66.62 202.39 66.62Z" fill="#8FC3FA"/>
<path d="M161.39 32.12C161.39 31.95 163.26 28.9901 161.39 29.0601C159.52 29.1301 160.75 31.64 160.75 31.64C160.75 31.64 156.67 29 157.74 30.59C158.81 32.18 161.39 32.12 161.39 32.12Z" fill="#98C7FA"/>
<path d="M166.95 38.6899C165.08 38.7599 166.31 41.27 166.31 41.27C166.31 41.27 164.2 37.9 163.3 40.22C162.93 41.19 164.02 41.5599 165.11 41.6899C163.92 41.9299 162.86 42.6101 163.23 43.3001C163.79 44.3601 166.95 41.75 166.95 41.75C166.95 41.58 168.82 38.6199 166.95 38.6899Z" fill="#98C7FA"/>
<path d="M164.64 60.89C162.77 60.96 164 63.47 164 63.47C164 63.47 161.89 60.1 160.99 62.42C160.62 63.39 161.71 63.76 162.8 63.89C161.61 64.13 160.55 64.81 160.92 65.5C161.48 66.56 164.64 63.95 164.64 63.95C164.64 63.78 166.51 60.82 164.64 60.89Z" fill="#8FC3FA"/>
<path d="M187.21 36.15C185.7 35.03 185.1 37.77 185.1 37.77C185.1 37.77 185.56 33.8199 183.41 35.0699C182.51 35.5899 183.14 36.5599 183.9 37.3499C182.82 36.7999 181.57 36.67 181.42 37.43C181.19 38.6 185.29 38.54 185.29 38.54C185.4 38.41 188.71 37.27 187.2 36.15H187.21Z" fill="#98C7FA"/>
<path d="M199.29 39.95C198.84 38.13 197.3 39.1 197.3 39.1C197.3 39.1 199.51 37.1 197.05 36.69C196.03 36.52 194.89 38.01 194.98 39.1C194.5 37.98 194.62 36.74 194.02 37.24C193.1 38 194.31 40.95 194.31 40.95C194.48 40.92 199.74 41.77 199.29 39.95Z" fill="#98C7FA"/>
<path d="M199.29 27.88C198.84 26.06 197.3 27.0301 197.3 27.0301C197.3 27.0301 199.51 25.03 197.05 24.62C196.03 24.45 194.89 25.9401 194.98 27.0301C194.5 25.9101 194.62 24.6701 194.02 25.1701C193.1 25.9301 194.31 28.88 194.31 28.88C194.48 28.85 199.74 29.7 199.29 27.88Z" fill="#98C7FA"/>
<path d="M213.64 50.6801C213.47 48.0101 211.06 49 211.06 49C211.06 49 214.66 46.7301 211.31 45.5501C209.91 45.0601 207.94 46.8701 207.8 48.4301C207.41 46.7401 207.88 45.03 206.91 45.58C205.42 46.42 206.39 50.86 206.39 50.86C206.64 50.86 213.82 53.36 213.64 50.69V50.6801Z" fill="#8FC3FA"/>
<path d="M204.57 90.52L203.1 98.0601C203.1 98.0601 203.09 98.13 203.08 98.16C203.08 98.18 203.08 98.21 203.06 98.24C203.06 98.29 203.04 98.34 203.02 98.4C203.02 98.43 203.01 98.46 203 98.49C202.98 98.55 202.97 98.6101 202.95 98.6801C202.95 98.7101 202.93 98.75 202.92 98.78C202.78 99.24 202.59 99.67 202.36 100.08C202.23 100.31 202.08 100.54 201.92 100.75C201.85 100.85 201.77 100.95 201.69 101.05C201.65 101.1 201.61 101.14 201.57 101.19C201.36 101.43 201.12 101.68 200.86 101.91C200.78 101.98 200.7 102.05 200.61 102.12C200.57 102.15 200.54 102.18 200.5 102.2C200.44 102.25 200.37 102.29 200.31 102.34C200.24 102.39 200.17 102.44 200.09 102.49C200 102.55 199.9 102.61 199.8 102.67C199.71 102.72 199.63 102.77 199.54 102.81C199.45 102.86 199.36 102.9 199.27 102.94C199.18 102.98 199.09 103.02 199 103.06C198.91 103.09 198.82 103.13 198.72 103.16C198.58 103.21 198.43 103.25 198.29 103.29C198.23 103.3 198.18 103.32 198.12 103.33C198.1 103.33 198.07 103.34 198.05 103.34C197.98 103.36 197.92 103.37 197.85 103.38C197.78 103.39 197.72 103.4 197.65 103.41C197.58 103.41 197.52 103.43 197.45 103.43C197.38 103.43 197.3 103.44 197.23 103.45H197.21C197.12 103.45 197.04 103.45 196.95 103.45H172.94C170.85 103.45 168.82 102.17 167.67 100.28C167.63 100.21 167.58 100.14 167.54 100.06C167.19 99.4401 166.93 98.76 166.79 98.04L166.51 96.58L166.45 96.28L165.32 90.5C164.77 87.66 165.8 85.0999 167.79 83.9399C168.49 83.5299 169.3 83.3101 170.19 83.3101H199.69C200.34 83.3101 200.96 83.43 201.52 83.66C202.06 83.88 202.54 84.2 202.96 84.59C203.04 84.67 203.12 84.74 203.19 84.83C204.43 86.17 205 88.25 204.56 90.5L204.57 90.52Z" fill="#ACD7FA"/>
<path d="M199.82 85.99H170.08C170.01 85.99 169.94 85.92 169.93 85.84C169.92 85.76 169.97 85.6899 170.03 85.6899H199.86C199.93 85.6899 199.98 85.76 199.96 85.84C199.95 85.92 199.88 85.99 199.81 85.99H199.82Z" fill="#98C7FA"/>
<path d="M204.57 90.52L203.1 98.0601C203.1 98.0601 203.09 98.13 203.08 98.16C203.08 98.18 203.08 98.21 203.06 98.24C203.06 98.29 203.04 98.34 203.02 98.4C203.02 98.43 203.01 98.46 203 98.49C202.98 98.55 202.97 98.6101 202.95 98.6801C202.95 98.7101 202.93 98.75 202.92 98.78C202.75 99.31 202.45 100.02 201.92 100.75C201.85 100.85 201.77 100.95 201.69 101.05C201.65 101.1 201.61 101.14 201.57 101.19C201.36 101.43 201.12 101.68 200.86 101.91C200.78 101.98 200.7 102.05 200.61 102.12C200.57 102.15 200.54 102.18 200.5 102.2C200.44 102.25 200.37 102.29 200.31 102.34C200.24 102.39 200.17 102.44 200.09 102.49C200 102.55 199.9 102.61 199.8 102.67C199.71 102.72 199.63 102.77 199.54 102.81C199.45 102.86 199.36 102.9 199.27 102.94C199.18 102.98 199.09 103.02 199 103.06C198.91 103.09 198.82 103.13 198.72 103.16C198.58 103.21 198.43 103.25 198.29 103.29C198.23 103.3 198.18 103.32 198.12 103.33C198.1 103.33 198.07 103.34 198.05 103.34C197.98 103.36 197.92 103.37 197.85 103.38C197.78 103.39 197.72 103.4 197.65 103.41C197.58 103.41 197.52 103.43 197.45 103.43C197.38 103.43 197.3 103.44 197.23 103.45H197.21C197.12 103.45 197.04 103.45 196.95 103.45H172.94C170.85 103.45 168.82 102.17 167.67 100.28C170.46 100.85 179.94 102.43 189.87 97.1801C197.32 93.2501 201.28 87.46 202.96 84.59C203.04 84.67 203.12 84.74 203.19 84.83C204.43 86.17 205 88.25 204.56 90.5L204.57 90.52Z" fill="#98C7FA"/>
<path d="M7.83997 246.69C19.02 291.08 42.9 319.63 73.1 319.63H481.48C511.54 319.63 534.08 286.1 539.88 246.69H7.82996H7.83997Z" fill="#C19A84"/>
<path d="M541.2 220.51C541.1 218.3 540.94 216.08 540.72 213.87H498.15V180.81H532.66C530.53 175.65 527.99 170.67 525.01 165.94H2.08997C1.53997 170.98 1.19003 175.95 1.03003 180.81H12.45V213.87H2.23999C2.45999 216.11 2.70998 218.32 2.97998 220.51H12.45V240.05H6.29004C6.78004 242.3 7.28997 244.51 7.83997 246.69H539.89C540.21 244.49 540.48 242.28 540.7 240.05H498.15V220.51H541.2ZM52.39 240.05H18.84V220.51H52.39V240.05ZM52.39 213.87H18.84V180.81H52.39V213.87ZM92.33 240.05H58.78V220.51H92.33V240.05ZM92.33 213.87H58.78V180.81H92.33V213.87ZM132.27 240.05H98.72V220.51H132.27V240.05ZM132.27 213.87H98.72V180.81H132.27V213.87ZM172.21 240.05H138.66V220.51H172.21V240.05ZM172.21 213.87H138.66V180.81H172.21V213.87ZM212.15 240.05H178.6V220.51H212.15V240.05ZM212.15 213.87H178.6V180.81H212.15V213.87ZM252.09 240.05H218.54V220.51H252.09V240.05ZM252.09 213.87H218.54V180.81H252.09V213.87ZM292.03 240.05H258.48V220.51H292.03V240.05ZM292.03 213.87H258.48V180.81H292.03V213.87ZM331.97 240.05H298.42V220.51H331.97V240.05ZM331.97 213.87H298.42V180.81H331.97V213.87ZM371.91 240.05H338.36V220.51H371.91V240.05ZM371.91 213.87H338.36V180.81H371.91V213.87ZM411.85 240.05H378.3V220.51H411.85V240.05ZM411.85 213.87H378.3V180.81H411.85V213.87ZM451.79 240.05H418.24V220.51H451.79V240.05ZM451.79 213.87H418.24V180.81H451.79V213.87ZM491.73 240.05H458.18V220.51H491.73V240.05ZM491.73 213.87H458.18V180.81H491.73V213.87Z" fill="#7D7D96"/>
<path d="M52.38 248.41H42.5699V316.51H52.38V248.41Z" fill="#AD7760"/>
<path d="M56.46 248.85L91.96 232.47V223.24L52.38 243.93L56.46 248.85Z" fill="#996553"/>
<path d="M38.89 245.06C38.89 245.06 38.89 242.61 45.47 239.71C49.96 237.73 91.96 218.16 91.96 218.16V226.49L56.46 243.92L38.89 245.06Z" fill="#AD7760"/>
<path d="M40.21 243.93H55.64C56.09 243.93 56.45 244.29 56.45 244.74V249.02C56.45 249.41 56.13 249.73 55.74 249.73H39.58C39.19 249.73 38.87 249.41 38.87 249.02V245.26C38.87 244.53 39.46 243.93 40.2 243.93H40.21Z" fill="#BF8673"/>
<path d="M482.44 316.52H492.25V248.42H482.44V316.52Z" fill="#AD7760"/>
<path d="M478.37 249.15L442.86 232.47V223.24L482.43 243.93L478.37 249.15Z" fill="#996553"/>
<path d="M495.93 245.06C495.93 245.06 495.93 242.61 489.35 239.71C484.86 237.73 442.86 218.16 442.86 218.16V226.49L478.36 243.92L495.93 245.06Z" fill="#AD7760"/>
<path d="M495.22 249.72H479.06C478.67 249.72 478.35 249.4 478.35 249.01V244.73C478.35 244.28 478.71 243.92 479.16 243.92H494.59C495.32 243.92 495.92 244.51 495.92 245.25V249.01C495.92 249.4 495.6 249.72 495.21 249.72H495.22Z" fill="#BF8673"/>
<path d="M91.96 178.91V248.42H442.86V178.91H91.96ZM154.01 189.01H180.2V242.26H154.01V189.01ZM146.77 242.26H120.58V189.01H146.77V242.26ZM187.45 189.01H213.64V242.26H187.45V189.01ZM220.88 189.01H247.07V242.26H220.88V189.01ZM254.31 189.01H280.5V242.26H254.31V189.01ZM287.74 189.01H313.93V242.26H287.74V189.01ZM321.17 189.01H347.36V242.26H321.17V189.01ZM354.6 189.01H380.79V242.26H354.6V189.01ZM388.03 189.01H414.22V242.26H388.03V189.01ZM97.61 189.01H113.31V242.26H97.61V189.01ZM437.16 242.26H421.46V189.01H437.16V242.26Z" fill="#996553"/>
<path d="M445.56 174.97H89.25C87.6097 174.97 86.28 176.3 86.28 177.94V179.88C86.28 181.52 87.6097 182.85 89.25 182.85H445.56C447.2 182.85 448.53 181.52 448.53 179.88V177.94C448.53 176.3 447.2 174.97 445.56 174.97Z" fill="#AD7760"/>
<path d="M42.58 316.56V347.44H50.33L59.21 316.51L42.58 316.56Z" fill="#AD7760"/>
<path d="M492.24 316.56V347.44H484.49L475.6 316.51L492.24 316.56Z" fill="#AD7760"/>
<path d="M497.24 316.51H37.58C37.221 316.51 36.9301 316.801 36.9301 317.16V326.95C36.9301 327.309 37.221 327.6 37.58 327.6H497.24C497.599 327.6 497.89 327.309 497.89 326.95V317.16C497.89 316.801 497.599 316.51 497.24 316.51Z" fill="#996553"/>
<path d="M54.54 316.51H480.27C481.46 316.51 482.43 315.54 482.43 314.35V293.57H52.38V314.35C52.38 315.54 53.35 316.51 54.54 316.51Z" fill="#C1B9B7"/>
<path d="M442.86 248.41L476.89 265.22C483.45 268.46 487.59 275.14 487.59 282.45V295.78C487.59 298.63 485.28 300.94 482.43 300.94H52.38C49.53 300.94 47.22 298.63 47.22 295.78V282.45C47.22 275.14 51.37 268.46 57.92 265.22L91.95 248.41H442.85H442.86Z" fill="#CEC9C8"/>
<path d="M349.08 300.31C362.13 296 397.7 287.37 391.31 276.27C391.31 276.27 388.06 252.42 367.72 248.41H204.67C198.25 250.48 191.94 252.9 185.79 255.68C183.69 256.63 181.5 257.71 180.28 259.66C178.35 262.75 179.56 266.88 181.63 269.88C187.79 278.79 199.65 281.44 210.43 282.57C221.21 283.7 270.31 283.94 286.46 300.93H347.35C347.93 300.72 348.5 300.49 349.09 300.3L349.08 300.31Z" fill="#C7BFBD"/>
<path d="M63.88 277.51L89.36 277.38L114.84 277.27L165.8 277.13L216.75 277.05L267.71 277.02L318.67 277.04L369.62 277.13L420.58 277.27L446.06 277.38L471.53 277.51L446.06 277.64L420.58 277.76L369.62 277.9L318.67 277.98L267.71 278.01L216.75 277.98L165.8 277.9L114.84 277.75L89.36 277.64L63.88 277.51Z" fill="#C7BFBD"/>
<path d="M175.55 184.54C175.55 184.54 169.59 186.53 165.8 184.54C162.01 182.55 158.58 183.06 157.85 185.42C157.13 187.79 159.11 192.21 160.2 195.6C161.28 198.99 157.28 208.29 158.46 212.68C159.63 217.07 160.39 224.81 161.65 230.59C162.91 236.37 160.01 246.06 158.58 248.47C157.15 250.88 161.11 251 164.72 250.82C168.33 250.64 186.21 255.33 197.59 254.79C208.97 254.25 230.1 250.64 236.6 251C243.1 251.36 249.42 251.36 250.69 249.56C251.95 247.75 247.26 244.86 246.36 241.79C245.46 238.72 244.73 215.04 242.75 208.01C240.76 200.98 235.71 194.66 236.43 190.87C237.15 187.08 240.4 183.29 238.78 180.22C237.15 177.15 233.9 180.04 230.65 180.22C227.4 180.4 196.34 177.69 175.57 184.55L175.55 184.54Z" fill="#F5D1B5"/>
<path d="M169.71 214.58C168.18 207.81 166.44 200.13 160.73 197.2C160.62 197.14 160.5 197.14 160.39 197.19C160.39 197.42 160.38 197.67 160.36 197.92C165.74 200.68 167.43 208.16 168.93 214.76C169.81 218.67 170.65 222.36 172.18 224.51C175.91 229.75 176.51 233.66 174.63 240.6C172.87 247.12 172.14 251.66 172.11 251.85C172.37 251.9 172.64 251.95 172.91 251.99C172.91 251.94 173.63 247.4 175.41 240.82C177.34 233.69 176.69 229.45 172.84 224.04C171.41 222.03 170.59 218.41 169.72 214.58H169.71Z" fill="#F2C5A7"/>
<path d="M198.12 254.22C197.93 254.22 197.76 254.09 197.72 253.89C197.69 253.73 196.95 249.91 197.49 244.73C197.99 239.94 199.74 233.09 205.24 227.59C206.22 226.61 207.17 225.66 208.1 224.74C217.05 215.82 223.52 209.37 226.11 203.87C226.21 203.67 226.45 203.58 226.65 203.68C226.85 203.78 226.94 204.02 226.84 204.22C224.19 209.85 217.68 216.34 208.67 225.32C207.74 226.24 206.79 227.19 205.81 228.17C200.49 233.49 198.79 240.15 198.3 244.79C197.77 249.85 198.51 253.69 198.52 253.73C198.56 253.95 198.42 254.16 198.2 254.21C198.17 254.21 198.15 254.21 198.12 254.21V254.22Z" fill="#F2C5A7"/>
<path d="M198.99 239.12C198.99 239.12 196.45 238.68 194.85 234.43C193.24 230.18 192.04 224.01 194.05 223.08C196.06 222.15 200.94 229.86 201.03 234.03C201.03 234.03 199.58 236.78 199 239.12H198.99Z" fill="#F2C5A7"/>
<path d="M201.02 234.02C201.02 234.02 213.06 221.26 219.32 230.33C219.64 231.06 218.92 234.66 214.58 236.03C210.25 237.39 199.86 239.48 198.98 239.12C198.98 239.12 200.22 235.44 201.01 234.03L201.02 234.02Z" fill="#F2C5A7"/>
<path d="M210.85 222.57C210.85 222.57 206.22 205.21 210.85 201.76C212.08 201.04 215.59 209.25 214.41 218.99L210.85 222.58V222.57Z" fill="#F2C5A7"/>
<path d="M225.76 205.42C225.76 205.42 230.57 202.4 232.65 198.31C234.74 194.22 233.77 190.2 232.65 189.56C231.53 188.92 225.68 198.01 225.76 205.42Z" fill="#F2C5A7"/>
<path d="M222.59 191.8C222.59 191.8 222.65 191.81 222.68 191.81C222.87 191.81 223.03 191.68 223.08 191.49C223.13 191.27 222.99 191.05 222.77 191C218.27 189.98 215.17 187.8 213.57 184.52C212.37 182.07 212.49 179.88 212.49 179.85C212.49 179.84 212.49 179.83 212.49 179.82C212.22 179.82 211.95 179.82 211.68 179.82C211.67 180.11 211.6 182.31 212.82 184.83C214 187.26 216.65 190.44 222.59 191.78V191.8Z" fill="#F2C5A7"/>
<path d="M215.07 187.4C215.07 187.4 216.6 198.39 220.45 198.63C224.3 198.87 222.68 191.41 222.68 191.41C222.68 191.41 218.27 190.55 215.07 187.41V187.4Z" fill="#F2C5A7"/>
<path d="M185.02 194.24C187.8 196.79 189.13 200.41 188.74 204.42C188.25 209.53 185.03 214.39 180.11 217.43C179.92 217.55 179.86 217.8 179.98 217.99C180.06 218.11 180.19 218.18 180.33 218.18C180.4 218.18 180.48 218.16 180.54 218.12C185.68 214.95 189.05 209.86 189.56 204.5C189.97 200.23 188.55 196.37 185.58 193.65C182.24 190.59 181.17 187.92 180.86 186.22C180.53 184.41 180.97 183.29 180.98 183.26C181.01 183.18 181.02 183.09 181 183.01C180.71 183.08 180.42 183.15 180.14 183.22C179.81 184.35 179.04 188.75 185.03 194.25L185.02 194.24Z" fill="#F2C5A7"/>
<path d="M182.48 190.81C182.48 190.81 177.69 188.7 174.63 192.67C171.57 196.64 172.04 198.66 176.05 197.56C180.06 196.46 184.07 193.76 182.48 190.81Z" fill="#F2C5A7"/>
<path d="M181.74 216.82C181.74 216.82 180.39 228.88 173.2 229.01C166.01 229.14 177.28 217.13 181.74 216.82Z" fill="#F2C5A7"/>
<path d="M187.76 209.55C187.76 209.55 180.17 204.17 176.05 207.9C174.63 209.1 177.05 211.45 180.06 211.57C183.07 211.69 186.67 211.57 186.67 211.57L187.76 209.55Z" fill="#F2C5A7"/>
<path d="M188.44 198.63C188.44 198.63 191.74 199.53 194.15 202.66C196.56 205.79 195.72 209.04 194.99 209.58C194.27 210.12 192.09 209.1 190.78 205.07C190.05 202.84 189.11 201.39 189.11 201.39L188.44 198.64V198.63Z" fill="#F2C5A7"/>
<path d="M183.94 192.58C183.94 192.58 188.19 191.28 193.55 192.06C198.91 192.84 198.91 195.67 198.37 196.7C197.83 197.72 185.64 194.26 185.64 194.26C185.64 194.26 184.42 193.12 183.95 192.59L183.94 192.58Z" fill="#F2C5A7"/>
<path d="M184.57 236.92C179.54 239.77 176.99 243.79 175.75 246.66C174.48 249.57 174.26 251.87 174.24 252.23C174.5 252.28 174.77 252.33 175.04 252.37C175.04 252.35 175.04 252.34 175.04 252.32C175.04 252.3 175.2 249.93 176.51 246.94C177.71 244.2 180.15 240.35 184.98 237.61C185.18 237.5 185.24 237.25 185.13 237.06C185.02 236.86 184.77 236.8 184.58 236.91L184.57 236.92Z" fill="#F2C5A7"/>
<path d="M183.63 237.97C183.63 237.97 185.3 235.77 186.38 234.45C187.46 233.13 187.64 229.69 189.57 229.63C191.5 229.57 191.51 238.56 183.63 237.97Z" fill="#F2C5A7"/>
<path d="M242.89 208.64C242.84 208.41 242.78 208.2 242.72 208C242.68 207.87 242.65 207.74 242.61 207.61C242.49 207.64 242.39 207.73 242.34 207.85C242.32 207.91 239.99 213.83 234.13 215.38C233.91 215.44 233.78 215.66 233.84 215.88C233.89 216.06 234.05 216.18 234.23 216.18C234.26 216.18 234.3 216.18 234.33 216.17C239.64 214.76 242.17 210.17 242.88 208.64H242.89Z" fill="#F2C5A7"/>
<path d="M235.91 215.19C235.91 215.19 230.24 214.6 226.87 217.16C223.5 219.73 225.26 222.83 227.43 222.56C229.6 222.29 235.32 216.98 235.91 215.18V215.19Z" fill="#F2C5A7"/>
<path d="M244.55 222.71C244.55 222.71 244.62 222.71 244.65 222.71C244.63 222.44 244.6 222.16 244.58 221.89C244.14 221.83 242.29 221.64 240.04 222.12C237.69 222.63 234.47 224 232.44 227.68C230.91 230.44 230.75 232.68 230.61 234.66C230.39 237.68 230.24 239.87 225.38 242.51C223.42 243.58 221.68 244.41 220.15 245.14C215.18 247.52 212.44 248.82 212.72 253.29V253.31C212.99 253.28 213.26 253.24 213.53 253.21C213.29 249.31 215.55 248.23 220.5 245.87C222.04 245.13 223.79 244.3 225.77 243.22C231.02 240.37 231.21 237.75 231.43 234.72C231.57 232.83 231.72 230.68 233.16 228.07C234.67 225.34 237.04 223.61 240.2 222.92C242.58 222.4 244.55 222.7 244.57 222.7L244.55 222.71Z" fill="#F2C5A7"/>
<path d="M232.99 227.53C232.99 227.53 224.9 230.25 222.68 234.18C220.45 238.11 229.31 235.39 231.02 234.59C231.02 234.59 231.02 232.59 231.52 231.06C232.01 229.53 232.99 227.54 232.99 227.54V227.53Z" fill="#F2C5A7"/>
<path d="M230.79 236.81C230.79 236.81 232.49 241.08 231.85 245.42C231.21 249.75 228.2 249.11 227.66 247.27C227.12 245.42 228.46 240.92 228.46 240.92C228.46 240.92 230.29 239.37 230.79 236.82V236.81Z" fill="#F2C5A7"/>
<path d="M242.73 222.21C242.73 222.21 240.84 224.54 241 227.07C241.16 229.6 241.24 233.35 238.91 233.81C236.58 234.26 236.58 226.22 240.43 222.46L242.72 222.21H242.73Z" fill="#F2C5A7"/>
<path d="M221.21 245.08C221.21 245.08 218.63 243.73 214.65 244.13C210.67 244.53 208.45 246.14 208.79 248.14C209.14 250.15 215.97 246.31 218.33 246.46L221.21 245.07V245.08Z" fill="#F2C5A7"/>
<path d="M70.44 200.28C70.44 200.28 61.59 204.39 60.33 206.38C59.07 208.37 62.14 210.89 63.76 215.59C65.39 220.29 67.55 232.39 68.82 239.43C70.08 246.47 73.7 254.6 76.22 261.28C78.75 267.96 77.8501 273.92 85.4301 272.12C93.0101 270.31 133.11 255.51 139.25 254.24C145.39 252.98 152.07 251.89 152.43 250.45C152.79 249.01 148.46 237.27 147.19 229.14C145.93 221.01 137.98 201.15 136.9 196.81C135.82 192.48 137.44 185.07 135.27 183.63C133.1 182.19 118.47 187.06 109.81 189.59C101.14 192.12 85.79 192.93 70.44 200.29V200.28Z" fill="white"/>
<path d="M81.46 242.13C77.13 235.99 72.43 216.12 69 210.71C66.86 207.34 63.39 206.06 61.08 205.58C60.74 205.87 60.48 206.14 60.33 206.37C59.07 208.36 62.14 210.88 63.76 215.58C65.39 220.28 67.55 232.38 68.82 239.42C70.08 246.46 73.7 254.59 76.22 261.27C78.71 267.84 77.8801 273.71 85.0501 272.19C85.2701 268.31 86.42 264.43 86.69 261.63C87.05 257.84 85.79 248.27 81.45 242.13H81.46Z" fill="#EFE8E6"/>
<path d="M106.24 210.89C106.24 210.89 104.21 211.25 102.04 211.79C99.8701 212.33 100.23 215.22 102.04 217.21C103.85 219.2 106.46 218.29 106.24 220.82C106.02 223.35 109.27 235.99 111.62 239.78C113.97 243.57 113.06 246.1 115.05 248.99C115.05 248.99 114.51 253.32 115.77 256.39C117.03 259.46 117.76 261.45 118.66 263.61C119.56 265.78 122.27 264.15 124.62 262.89C126.97 261.63 133.47 259.64 138.16 259.1C142.86 258.56 158.75 255.67 162.72 253.86C166.69 252.05 172.83 251.69 172.47 249.71C172.11 247.72 167.77 245.2 167.23 243.03C166.69 240.86 165.79 226.78 162.72 219.91C159.65 213.05 160.06 210.2 159.15 204.39C157.69 195.06 154.77 198.06 150.98 198.78C147.19 199.5 141.05 203.48 131.84 204.38C122.63 205.28 111.77 208.85 106.24 210.88V210.89Z" fill="#EFDDDA"/>
<path d="M115.05 223.89C114.87 219.92 111.08 217.57 106.24 216.49C103.63 215.91 101.88 214.16 100.82 212.68C100.18 213.83 100.72 215.76 102.04 217.21C103.85 219.2 106.46 218.29 106.24 220.82C106.02 223.35 109.27 235.99 111.62 239.78C113.97 243.57 113.06 246.1 115.05 248.99C115.05 248.99 114.51 253.32 115.77 256.39C117.03 259.46 117.76 261.45 118.66 263.61C119.29 265.12 120.79 264.79 122.43 264.03C122.34 259.9 123.01 259.28 123.35 255.85C123.71 252.25 122.45 247.18 119.02 241.04C115.59 234.9 115.23 227.86 115.05 223.88V223.89Z" fill="#EBD5CE"/>
<path d="M141.95 202.06C144.44 207.02 154.61 228.22 160.87 254.54C161.63 254.3 162.26 254.08 162.72 253.87C163.07 253.71 163.43 253.57 163.8 253.43C157.54 227.1 147.35 205.9 144.88 200.96C143.97 201.32 142.99 201.7 141.95 202.07V202.06Z" fill="#EBD5CE"/>
<path d="M128.28 204.85C131.22 208.78 141.06 223.72 149.22 257.26C150.65 256.98 152.09 256.69 153.49 256.39C145.75 224.78 135.56 209.38 131.72 204.4C130.59 204.51 129.44 204.67 128.28 204.85Z" fill="#EBD5CE"/>
<path d="M133.58 259.93C134.51 259.71 135.44 259.52 136.34 259.37C128.24 226.01 119.54 211.37 116.87 207.43C115.85 207.72 114.86 208.01 113.9 208.31C116.27 211.6 125.24 225.65 133.57 259.93H133.58Z" fill="#EBD5CE"/>
<path d="M132.93 208.72C132.93 208.72 129.68 225.28 124.02 239.01C124.02 239.01 145.69 251.34 150.99 254.47C150.99 254.47 157.97 234.12 159.3 229.19C159.3 229.19 148.34 214.86 132.93 208.72Z" fill="#EBD5CE"/>
<path d="M134.9 212.34C134.9 212.34 132.08 225.93 127.25 237.66C127.25 237.66 145.61 248.47 150.14 251.14C150.14 251.14 155.59 233.76 156.72 229.54C156.72 229.54 148.07 217.59 134.9 212.34Z" fill="#EFDDDA"/>
<path d="M141.2 225.88C141.2 225.88 140.42 229.62 139.09 232.86C139.09 232.86 144.15 235.84 145.4 236.57C145.4 236.57 146.9 231.78 147.21 230.62C147.21 230.62 144.83 227.33 141.2 225.88Z" fill="#EBD5CE"/>
<path d="M343.13 186.87C343.13 186.87 339.52 186.51 336.63 185.43C333.74 184.35 327.96 184.35 327.42 186.87C326.88 189.4 330.67 190.48 330.31 194.27C329.95 198.06 324.35 208.9 321.46 216.12C318.57 223.34 318.03 231.83 316.22 238.51C314.41 245.19 311.34 248.26 309.9 250.25C308.46 252.24 312.07 254.76 316.22 254.95C320.37 255.13 333.2 253.69 341.14 255.31C349.09 256.94 379.61 260.55 390.44 256.94C392.43 256.22 392.79 251.52 393.15 246.83C393.51 242.14 398.57 222.99 399.65 214.14C400.73 205.29 400.01 198.07 401.64 195C403.27 191.93 404.71 188.68 401.64 188.32C398.57 187.96 385.93 188.14 379.97 188.5C374.01 188.86 355.77 185.79 343.13 186.87Z" fill="#E5CACA"/>
<path d="M399.66 214.14C400.74 205.29 400.02 198.07 401.65 195C403.28 191.93 404.72 188.68 401.65 188.32C401.46 188.3 401.24 188.28 400.99 188.26C399.51 188.9 397.62 190.17 396.05 192.65C392.98 197.53 391.72 207.46 389.91 216.49C388.1 225.52 383.59 232.2 383.95 239.24C384.28 245.66 385.21 253.31 388.79 257.4C389.38 257.26 389.94 257.11 390.45 256.94C392.44 256.22 392.8 251.52 393.16 246.83C393.52 242.13 398.58 222.99 399.66 214.14Z" fill="#D6B9B9"/>
<path d="M359.76 187.07C357.05 191.63 352.06 201.13 348.19 214.86C343.02 233.19 344.47 241.56 339.33 255C339.96 255.09 340.57 255.19 341.15 255.31C342.81 255.65 345.44 256.07 348.68 256.5C352.83 244.54 352.77 232.61 356.52 217.02C359.45 204.85 365.2 193.48 368.37 187.78C365.68 187.54 362.76 187.27 359.77 187.06L359.76 187.07Z" fill="#E8D1D1"/>
<path d="M372.46 258.45C377.36 245.23 377.13 225.26 378.89 213.42C380.25 204.31 385.17 193.87 388.13 188.2C385.05 188.27 382.09 188.37 379.97 188.5C379.53 188.53 379.03 188.53 378.47 188.53C376.18 193.02 372.86 200.74 370.58 211.26C367.1 227.35 368.64 244.2 361.78 257.89C365.31 258.17 368.94 258.37 372.45 258.46L372.46 258.45Z" fill="#E8D1D1"/>
<path d="M343.71 186.82C341.02 191.55 334.63 203.85 331.4 219.01C327.68 236.47 327.44 246.71 324.71 254.68C326.66 254.6 328.77 254.53 330.88 254.53C334.55 243.62 334.47 229.06 338.26 215.94C341.56 204.54 346.74 191.99 349.02 186.63C347.18 186.63 345.4 186.69 343.7 186.82H343.71Z" fill="#E8D1D1"/>
<path d="M472.64 191.92C472.64 191.92 446.77 183.79 428.92 209.44C411.06 235.08 430.39 256.94 441.58 261.27C452.78 265.6 479.14 263.08 489.62 237.97C500.09 212.87 485.65 196.61 472.64 191.92Z" fill="#EFE8E6"/>
<path d="M474.76 192.78C474.05 192.46 473.35 192.17 472.65 191.92C472.65 191.92 446.78 183.79 428.93 209.44C414.35 230.37 424.55 248.78 434.88 257.19C434.93 257.21 434.98 257.23 435.03 257.25C446.23 261.58 472.59 259.06 483.07 233.95C491.19 214.48 484.33 200.34 474.77 192.78H474.76Z" fill="white"/>
<path d="M446.023 220.003C446.634 218.475 446.227 216.875 445.114 216.43C444.002 215.985 442.604 216.863 441.993 218.391C441.382 219.919 441.788 221.519 442.901 221.964C444.014 222.409 445.411 221.531 446.023 220.003Z" fill="#EFE8E6"/>
<path d="M445.14 216.89C445.14 216.89 445.13 216.89 445.12 216.89C444.9 216.89 444.72 216.69 444.73 216.47C444.73 216.24 445 210.75 448.22 208.73C448.41 208.61 448.66 208.67 448.78 208.86C448.9 209.05 448.84 209.3 448.65 209.42C445.79 211.21 445.55 216.45 445.54 216.5C445.54 216.72 445.35 216.89 445.13 216.89H445.14Z" fill="#EFE8E6"/>
<path d="M439.48 227.79C439.48 227.79 439.43 227.79 439.4 227.79C439.18 227.75 439.04 227.53 439.08 227.31C440.08 222.2 442.75 221.65 442.86 221.63C443.08 221.59 443.29 221.73 443.33 221.96C443.37 222.18 443.23 222.39 443.01 222.43C442.97 222.43 440.76 222.97 439.87 227.47C439.83 227.66 439.66 227.8 439.47 227.8L439.48 227.79Z" fill="#EFE8E6"/>
<path d="M442.03 218.86C442.03 218.86 442 218.86 441.98 218.86C441.83 218.84 440.46 218.6 437.89 215.7C437.74 215.53 437.76 215.28 437.93 215.13C438.1 214.98 438.35 215 438.5 215.17C440.85 217.83 442.08 218.06 442.09 218.07C442.31 218.1 442.47 218.3 442.44 218.52C442.41 218.73 442.24 218.88 442.03 218.88V218.86Z" fill="#EFE8E6"/>
<path d="M450.97 222.45C447.85 222.45 445.84 220.44 445.76 220.34C445.6 220.18 445.61 219.92 445.76 219.77C445.92 219.61 446.18 219.62 446.33 219.77C446.35 219.79 448.42 221.85 451.47 221.61C451.69 221.59 451.89 221.76 451.91 221.98C451.93 222.2 451.76 222.4 451.54 222.42C451.35 222.44 451.15 222.44 450.97 222.44V222.45Z" fill="#EFE8E6"/>
<path d="M466.42 229.61C465.81 231.14 464.41 232.02 463.3 231.57C462.19 231.13 461.78 229.53 462.39 228C463 226.47 464.4 225.59 465.51 226.04C466.62 226.48 467.03 228.08 466.42 229.61Z" fill="#EFE8E6"/>
<path d="M460.26 236.78C460.26 236.78 460.22 236.78 460.19 236.78C459.97 236.74 459.82 236.53 459.86 236.31C460.44 232.82 462.61 231.13 462.7 231.06C462.88 230.92 463.13 230.96 463.27 231.14C463.41 231.32 463.37 231.57 463.19 231.71C463.16 231.73 461.19 233.29 460.66 236.45C460.63 236.65 460.45 236.79 460.26 236.79V236.78Z" fill="#EFE8E6"/>
<path d="M465.51 226.45C465.32 226.45 465.15 226.32 465.11 226.12C465.09 226.01 464.59 223.26 467.49 219.8C467.63 219.63 467.89 219.61 468.06 219.75C468.23 219.89 468.25 220.15 468.11 220.32C465.46 223.49 465.9 225.94 465.9 225.96C465.94 226.18 465.8 226.39 465.58 226.44C465.55 226.44 465.53 226.44 465.5 226.44L465.51 226.45Z" fill="#EFE8E6"/>
<path d="M462.25 228.41C460.23 228.41 457.96 225.83 457.87 225.72C457.72 225.55 457.74 225.29 457.91 225.15C458.08 225 458.34 225.02 458.48 225.19C459.09 225.9 460.99 227.7 462.36 227.6C462.58 227.58 462.78 227.75 462.8 227.97C462.82 228.19 462.65 228.39 462.43 228.41C462.37 228.41 462.32 228.41 462.26 228.41H462.25Z" fill="#EFE8E6"/>
<path d="M470.94 232.12C470.94 232.12 470.9 232.12 470.88 232.12C468.23 231.71 466.24 230 466.16 229.92C465.99 229.77 465.97 229.52 466.12 229.35C466.27 229.18 466.52 229.16 466.69 229.31C466.72 229.33 468.6 230.94 471.01 231.32C471.23 231.35 471.38 231.56 471.35 231.78C471.32 231.98 471.15 232.12 470.95 232.12H470.94Z" fill="#EFE8E6"/>
<path d="M216.56 253.26C218.68 254.05 215.23 247.65 222.61 247.26C231.08 246.8 250.96 252.3 262.2 251.14C271.36 250.2 280.7 249.19 288.99 248.4C289.15 248.39 289.31 248.37 289.46 248.36H289.5C297.46 247.59 304.26 246.69 308.72 245.72C323.4 242.53 327.23 227.04 328.23 219.31C328.26 219.09 328.28 218.88 328.31 218.69C328.57 216.38 328.58 214.9 328.58 214.9C328.58 214.9 327.13 208.05 327.1 208.04C326.85 208 311.4 209.9 297.34 209.71C286.94 209.57 279.47 207.7 277.26 207.47L275.31 211.27C274.76 212.35 273.65 213.04 272.44 213.06C263.17 213.25 223.65 214.25 209.31 218.11C194.84 222.01 193.94 244.87 216.55 253.27L216.56 253.26Z" fill="#C68C7C"/>
<path d="M231.51 253.81C239.98 253.35 254.71 251.91 265.95 250.74C260.8 245.94 240.35 228.22 226.79 229.3C216.08 230.15 223.81 246.93 231.5 253.81H231.51Z" fill="#B37868"/>
<path d="M258.24 226.97C260.94 230.61 265.42 238.61 270.99 242.78C273.15 244.4 280.58 246.26 288.91 248.22C289.1 248.26 289.28 248.3 289.47 248.35C289.48 248.35 289.49 248.35 289.5 248.36C294.62 249.56 300.04 250.78 304.76 251.99C307.22 252.63 309.49 253.25 311.43 253.88C314.05 254.72 316.07 255.54 317.14 256.33C326.19 263.04 334.32 267.99 341.55 271.51C352.82 277.01 361.88 279.03 368.75 278.78C380.7 278.35 386.07 271.07 385.02 263.36C383.71 253.72 378.53 246.87 371.16 241.99C361.24 235.43 351.03 227.09 337.83 221.93C336.22 221.3 334.56 220.71 332.86 220.19C332.84 220.19 332.81 220.17 332.79 220.17C332.19 219.99 330.82 219.64 330.62 219.43L330.33 218.79L328.59 214.89C328.59 214.89 328.58 214.89 328.55 214.89C325.2 214.74 321.86 214.62 318.56 214.55C317.93 214.54 317.3 214.52 316.67 214.51C307.26 214.34 298.22 214.48 290.17 214.97C289.14 215.03 288.12 215.09 287.12 215.17C266.66 216.67 253.44 220.5 258.25 226.98L258.24 226.97Z" fill="#C68C7C"/>
<path d="M271 242.79C273.17 244.41 280.59 246.27 288.91 248.22C289.1 248.26 289.28 248.3 289.47 248.35C289.48 248.35 289.49 248.35 289.5 248.35C294.62 249.55 300.04 250.77 304.76 251.98C307.22 252.62 309.49 253.24 311.43 253.87C311.84 254 312.24 254.13 312.62 254.26C316.35 245.6 321.27 233.88 321.27 233.88L271 242.78V242.79Z" fill="#BF806F"/>
<path d="M304.76 251.98C307.22 252.62 309.49 253.24 311.43 253.87C314.05 254.71 316.07 255.53 317.14 256.32C326.19 263.03 334.32 267.98 341.55 271.5C364.87 269.62 370.53 258.34 354.65 251.21C341.07 245.12 316.42 249.4 304.76 251.98Z" fill="#B37868"/>
<path d="M304.76 251.98C307.22 252.62 309.49 253.24 311.43 253.87C311.84 254 312.24 254.13 312.62 254.26C313.19 252.93 313.79 251.53 314.4 250.11C310.71 250.73 307.4 251.4 304.76 251.98Z" fill="#A66A5A"/>
<path d="M298.94 224.62C299.78 224.59 325.03 223.22 337.83 221.93C336.22 221.3 334.56 220.71 332.86 220.19C332.84 220.19 332.81 220.17 332.79 220.17C330.05 219.52 299.92 224.54 298.94 224.62Z" fill="#B37868"/>
<path d="M294.02 218.2C294.28 217.89 294.75 218.3 294.5 218.61C287.78 226.74 285.85 238.2 289.53 248.09C289.67 248.47 289.08 248.68 288.94 248.3C285.19 238.21 287.17 226.5 294.02 218.2Z" fill="#B37868"/>
<path d="M327.11 208.03C327.11 208.03 328.26 210.54 328.21 213.12C328.21 213.12 308.83 218.62 292.01 215.81C281.59 214.44 275.65 210.62 275.65 210.62C275.65 210.62 276.11 208.33 277.27 207.46L327.11 208.04V208.03Z" fill="#B37868"/>
<path d="M290.27 267.61C289.59 263.41 282.86 262.54 279.13 263.04C275.4 263.54 271.56 262.08 271.56 262.08C271.25 260.85 270.8 259.72 270.09 258.76C268.31 256.37 265.13 255.84 259.09 259.16C253.05 262.48 247.24 260.12 243.31 261.64C239.38 263.15 230.77 269.78 231.25 271.5C231.98 274.08 233.06 274.77 238.55 273.57C239.88 273.28 241.25 273.21 243.45 273.08C246.87 272.87 251.2 273.15 255.04 273.99C255.04 273.99 255.77 274.19 257.15 274.28C257.15 274.28 274.78 276.23 279.96 276.26C285.14 276.29 290.94 271.81 290.27 267.61Z" fill="#F6AF9A"/>
<path d="M269.26 257.43C269.26 257.43 266.99 254.89 265.11 254.87C263.94 254.86 255.93 257.32 252.02 257.84C248.12 258.36 239.3 260.96 234.17 265.46C229.04 269.97 230.86 271.96 231.29 272.63L269.26 257.42V257.43Z" fill="#F2C7BB"/>
<path d="M272.69 262.45C272.69 262.45 273.18 261.89 272.47 261.09C272.47 261.09 270.55 258.44 269.26 257.44C269.26 257.44 266.52 256.01 261.55 257.92C256.59 259.83 252.59 260.17 247.83 261.2C243.74 262.09 237.32 264.91 233.16 269.07C231.83 270.46 231.13 271.54 231.29 272.65C231.41 273.51 232.33 274.65 233.97 275.44C240.78 278.74 248.86 275.93 253.72 276.23C258.58 276.53 265.23 276.41 265.81 275.95C266.39 275.5 265.94 271.21 264.89 269.56C263.84 267.91 262.53 267.74 262.57 267.66C262.61 267.58 256.32 264.93 260.24 263.3C261.73 262.68 270.17 262.67 272.67 262.46L272.69 262.45Z" fill="#FAE9E4"/>
<path d="M271.06 276.71C271.41 276.78 271.76 276.84 272.1 276.9C276.28 277.68 280.37 278.36 284.36 278.94C336.7 286.61 372.24 278.53 372.24 278.53C393.66 270 369.8 244.75 352.86 248.45C315.89 256.55 278.03 259.99 274.17 260.16L272.73 267.81L271.4 274.87L271.05 276.71H271.06Z" fill="#C68C7C"/>
<path d="M274.17 260.16L273.7 262.64C275.65 263.43 277.5 264.28 279.18 265.18C279.18 265.18 288.08 262.75 294.42 262.48C300.76 262.21 306.15 264.37 306.15 264.37C306.15 264.37 307.63 264.77 308.58 263.29C308.88 262.83 310.23 259.77 311.95 255.78C291.87 258.7 276.54 260.05 274.16 260.16H274.17Z" fill="#BF806F"/>
<path d="M278.33 260.3C278.39 259.9 279.01 260.02 278.95 260.42C278.02 266.33 278.19 272.32 279.48 278.17C279.57 278.56 278.98 278.78 278.89 278.38C277.58 272.42 277.39 266.33 278.34 260.3H278.33Z" fill="#B37868"/>
<path d="M271.4 274.87C271.62 275.56 271.86 276.25 272.09 276.9C276.27 277.68 280.36 278.36 284.35 278.94C284.22 278.32 282.68 278.21 282.91 277.22C285.95 263.8 277.26 263.38 274.17 260.16L271.4 274.87Z" fill="#B37868"/>
<path d="M262.71 265.43C265.36 262.1 271.66 264.63 274.67 266.9C277.68 269.16 281.74 269.77 281.74 269.77C282.61 268.85 283.55 268.08 284.65 267.59C287.37 266.38 290.4 267.47 294.04 273.32C297.68 279.17 303.9 279.96 306.59 283.2C309.28 286.44 313.99 296.81 312.73 298.07C310.84 299.96 309.11 299.67 304.9 295.93C303.88 295.02 302.72 294.3 300.87 293.1C297.99 291.24 294.08 289.37 290.32 288.23C290.32 288.23 289.59 288.05 288.33 287.45C288.33 287.45 272 280.52 267.47 278.02C262.94 275.51 260.07 268.76 262.71 265.43Z" fill="#F6AF9A"/>
<path d="M286.45 266.77C286.45 266.77 289.67 265.65 291.32 266.55C292.35 267.11 298.15 273.16 301.31 275.51C304.47 277.86 310.9 284.42 313.19 290.86C315.48 297.3 312.92 298.15 312.22 298.53L286.45 266.77Z" fill="#F2C7BB"/>
<path d="M280.93 269.55C280.93 269.55 280.86 268.75 281.88 268.39C281.88 268.39 284.85 267.01 286.46 266.76C286.46 266.76 289.55 266.84 292.96 270.93C296.36 275.02 299.7 277.26 303.35 280.47C306.49 283.24 310.73 288.83 312.34 294.48C312.83 296.34 312.91 297.62 312.23 298.52C311.7 299.21 310.35 299.76 308.53 299.66C300.98 299.23 295.28 292.84 290.89 290.73C286.5 288.63 280.75 285.28 280.46 284.6C280.17 283.92 282.65 280.39 284.37 279.46C286.09 278.53 287.32 279.01 287.32 278.93C287.32 278.84 294.11 279.59 291.47 276.26C290.47 275 283.02 270.95 280.93 269.54V269.55Z" fill="#FAE9E4"/>
<path d="M226.11 226.84C224.23 225.92 208.48 216.78 201.97 222.73C197.86 226.49 196.98 242.94 207.03 250.14C231.45 267.63 269 284.51 271.26 284.09C273.52 283.68 282.15 267.31 280.79 266.72C279.43 266.13 246.42 236.72 226.12 226.83L226.11 226.84Z" fill="#C68C7C"/>
<path d="M242.23 254.39C242.23 254.39 264.58 257.84 278.08 264.61C273.74 261.02 264.72 253.4 254.64 245.69L243.58 247.65C243.58 247.65 241.69 250.89 242.23 254.39Z" fill="#BF806F"/>
<path d="M269.37 277C270.44 275.75 271.27 274.68 272.05 273.17C273.48 270.42 274.4 267.37 275.11 264.36C275.2 263.97 275.79 264.18 275.7 264.57C274.99 267.61 274.06 270.68 272.61 273.46C271.1 276.36 268.62 278.71 266.46 281.13C266.37 281.23 266.24 281.29 266.12 281.25C266.12 281.25 266.03 281.23 265.97 281.15C265.76 280.88 268.14 278.44 269.37 277Z" fill="#B37868"/>
<path d="M306.89 258.17L321.63 230.11L265.88 222.2L240.89 246.48L242.68 248.45L304.73 259.42L306.89 258.17Z" fill="#3A4B82"/>
<path d="M306.89 261.58L321.27 233.89L321.63 230.11L306.89 258.17V261.58Z" fill="#2F4078"/>
<path d="M314.62 232.27L301.67 254.21L250.24 243.87L268.31 225.7L314.62 232.27Z" fill="#2F4078"/>
<path d="M312.1 239.05C312.1 239.05 312.06 239.05 312.04 239.05L263.21 231.18C263.02 231.15 262.89 230.97 262.92 230.77C262.95 230.58 263.13 230.45 263.33 230.48L312.16 238.35C312.35 238.38 312.48 238.56 312.45 238.76C312.42 238.93 312.27 239.06 312.1 239.06V239.05Z" fill="#3A4B82"/>
<path d="M308.19 246.38C308.19 246.38 308.15 246.38 308.13 246.38L256.83 237.75C256.64 237.72 256.51 237.53 256.54 237.34C256.57 237.15 256.75 237.02 256.95 237.05L308.25 245.68C308.44 245.71 308.57 245.9 308.54 246.09C308.51 246.26 308.36 246.39 308.19 246.39V246.38Z" fill="#3A4B82"/>
<path d="M255.77 194.75C255.77 194.75 265.06 157.21 268.76 148.53C270.28 144.39 274.26 141.43 278.93 141.41C284.93 141.4 289.8 146.25 289.82 152.24C289.82 153.49 289.62 154.68 289.23 155.8C289.14 156.06 289.04 156.32 288.93 156.57C287.01 161.51 278.33 184.61 269.81 201.09C268.71 204 265.91 206.07 262.61 206.08C258.35 206.09 255.3 203.3 255.29 199.04C255.29 197.37 255.27 196.7 255.77 194.73V194.75Z" fill="#F6AF9A"/>
<path d="M285.05 141.42C285.05 141.42 292.31 142.57 291.33 154.61C290.35 166.65 281.59 189.75 281.59 189.75C281.59 189.75 263.66 186.68 258.19 180.01C258.19 180.01 265.67 149.8 270.91 144.36C276.46 138.6 285.04 141.42 285.04 141.42H285.05Z" fill="#FAF5F5"/>
<path d="M281.59 189.75C281.59 189.75 274.66 188.56 268.1 186.06C268.35 179.65 270.99 170.42 273.39 165.24C276.21 159.17 277.24 152.85 277.24 152.85L288.27 169.39C285.4 179.69 281.58 189.75 281.58 189.75H281.59Z" fill="#F7E8E4"/>
<path d="M279.67 191.14C279.67 191.14 274.8 188.58 274.17 183.71C273.54 178.84 277.32 160.99 278.38 153.53C279.45 146.07 272.45 148.04 271.84 144.28C271.84 144.28 282.2 134.2 300.89 133.4C300.89 133.4 311.05 132.07 321.02 134.46C329.16 136.41 333.07 139.91 334.53 142.57C335.99 145.23 334.72 152.68 332.06 160.23C329.4 167.78 326.58 174.28 325.88 182.39C325.55 186.31 324.65 198.67 324.39 207.85C324.39 207.85 324.45 208.76 304.75 212.04C285.05 215.32 280.22 207.14 280.22 207.14C279.94 199.56 279.66 191.15 279.66 191.15L279.67 191.14Z" fill="#F6AF9A"/>
<path d="M294.55 136.86L292.46 117.49C291.96 113.67 294 109.81 297.7 108.17C302.21 106.17 307.49 108.21 309.49 112.72C309.76 113.33 309.96 113.96 310.08 114.59L315.16 134.92C315.2 135.06 315.34 135.71 315.34 135.71C316.43 140.51 313.94 145.23 309.27 147.3C303.96 149.65 297.98 147.49 295.63 142.18C294.9 140.53 294.71 138.72 294.53 136.87L294.55 136.86Z" fill="#F6AF9A"/>
<path d="M310.62 116.72C310.29 115.41 310.09 114.6 310.09 114.6C309.96 113.97 309.77 113.34 309.5 112.73C307.5 108.22 302.23 106.18 297.71 108.18C294 109.82 291.97 113.67 292.47 117.5C292.47 117.5 293.98 131.51 294.52 136.53C306.42 134.65 309.11 127.09 310.63 116.72H310.62Z" fill="#EA9A88"/>
<path d="M314.79 133.38C314.79 133.38 307.69 144.92 299.75 143.6C292.63 142.42 294.25 134.08 294.25 134.08C294.25 134.08 289.06 134.36 283.39 136.49C277.72 138.62 271.05 143.88 270.92 144.35C270.79 144.82 272.33 147 273.91 148.24C275.49 149.48 277.41 149.95 277.24 153.49C277.07 157.03 273.53 173.05 272.67 177.49C271.81 181.93 271.29 188.92 277.49 191.77C277.49 191.77 276.12 192.97 277.55 194.39C277.55 194.39 278.29 196.33 278.18 198.89C278.18 198.89 277.95 201.4 277.33 203.44C276.7 205.49 276.38 206.72 277.28 207.44C277.28 207.44 281.7 212.51 292.92 213.48C304.14 214.45 318.92 212.11 327.11 208.01C327.11 208.01 328.05 206.64 327.71 203.65C327.37 200.66 325.58 195.45 326 191.01C326.43 186.57 326.77 178.03 329.59 170C332.41 161.97 335.31 151.3 336.25 147.28C337.19 143.27 336.12 140.51 335.99 139.68C335.73 137.97 328.29 134.18 314.79 133.36V133.38Z" fill="#FAF5F5"/>
<path d="M329.59 170.02C330.78 166.63 331.98 162.78 333.05 159.15C326.12 150.81 319.85 145.54 319.85 145.54C319.85 145.54 316.4 156.02 315.33 161.4C314.26 166.78 311.87 190.44 311.87 190.44C311.87 190.44 311.98 190.49 312.16 190.58C311.44 191.27 310.64 191.88 309.75 192.33C304.71 194.91 294.34 192.45 294.34 192.45C303.81 197.76 312.33 194.59 316.42 192.35C316.78 192.47 317.12 192.57 317.43 192.65C319.7 193.22 316.79 198.96 312.91 203.06C310.75 205.35 304.67 213.01 296.57 213.69C307.18 213.95 319.77 211.69 327.1 208.03C327.1 208.03 328.04 206.66 327.7 203.67C327.36 200.68 325.57 195.47 325.99 191.03C326.42 186.59 326.76 178.05 329.58 170.02H329.59Z" fill="#F7E8E4"/>
<path d="M277.01 193.6C277.26 193.28 277.7 193.07 278.41 193.12C280.99 193.3 284.82 192.88 284.82 192.88C281.34 192.7 277.49 191.77 277.49 191.77C277.49 191.77 276.6 192.55 277.01 193.6Z" fill="#F7E8E4"/>
<path d="M320.1 146.93C320.28 145.94 320.6 144.97 321.07 144.03C323.74 138.66 328.15 136.75 333.52 139.42C337.98 141.64 340.24 146.51 339.35 151.17L335.84 204.03C335.79 205.07 335.53 206.12 335.04 207.11C333.14 210.92 328.52 212.47 324.7 210.57C321.49 208.97 319.88 205.43 320.59 202.08C320.59 202.08 318.67 162.54 319.93 148.41C319.95 147.92 320.09 146.92 320.09 146.92L320.1 146.93Z" fill="#F6AF9A"/>
<path d="M333.77 137.83C333.77 137.83 339.41 140.05 341.03 148.34C342.65 156.62 341.54 190.78 341.54 190.78C341.54 190.78 323.69 192.32 315.32 188.39C315.32 188.39 318.14 153.93 319.51 146.93C320.88 139.93 326.34 135.61 333.77 137.83Z" fill="#FAF5F5"/>
<path d="M292.32 224.81C292.32 224.81 294.09 223.29 302.11 215.95C311.28 207.56 318.18 201.92 322.23 199C322.73 198.55 323.27 198.17 323.84 197.87C326.5 196.49 329.84 196.73 332.3 198.75C335.59 201.45 336.06 206.31 333.36 209.6C332.83 210.25 332.21 210.78 331.54 211.21L297.3 231.78C297.17 231.88 297.04 231.97 296.9 232.05C295.38 232.96 293.41 232.86 291.97 231.68C290.14 230.17 289.88 227.47 291.38 225.64C291.65 225.31 291.96 225.03 292.3 224.81H292.32Z" fill="#F6AF9A"/>
<path d="M279.84 219.89C279.84 219.89 278.89 217.76 274.77 207.7C270.06 196.2 272.85 201.4 270.44 197.02C270.18 196.4 269.85 195.83 269.46 195.31C267.65 192.92 264.52 191.72 261.43 192.49C257.3 193.53 254.8 197.72 255.84 201.85C256.04 202.66 256.37 203.41 256.79 204.08L272.33 224.06C272.4 224.2 272.48 224.34 272.57 224.47C273.56 225.94 275.38 226.7 277.19 226.24C279.49 225.66 280.88 223.33 280.3 221.03C280.2 220.62 280.03 220.23 279.83 219.89H279.84Z" fill="#F6AF9A"/>
<path d="M276.49 114.11C276.49 114.11 278.65 120.49 278.65 124.99C278.65 129.49 278.29 132.81 278.11 135.51C277.93 138.21 278.38 140.91 281.44 141.71C284.5 142.52 288.63 141.18 290.52 140C293.85 137.93 294.25 134.08 294.25 134.08L294.13 132.96L295.73 113.11V92.16H275.68C275.68 92.16 272.89 102.14 276.49 114.1V114.11Z" fill="#B54C4C"/>
<path d="M280.21 120.84C281.14 122.67 281.78 124.67 281.84 126.74C281.82 128.79 281.08 130.76 280.87 132.79C280.56 135.4 280.6 138.17 281.86 140.54C282.03 140.96 282.4 141.35 282.54 141.75C281.83 141.2 281.28 140.33 280.87 139.52C278.68 135.14 281.16 130.81 281.46 126.41C281.54 124.53 280.69 122.42 280.21 120.85V120.84Z" fill="#A64242"/>
<path d="M284.7 129.11C285.95 131 285.29 133.37 285.21 135.47C285.23 137.47 284.95 139.89 286.49 141.38C283.65 140.21 284.57 136.23 284.86 133.81C285.23 132.03 285.26 130.67 284.69 129.11H284.7Z" fill="#A64242"/>
<path d="M289.97 78.8C289.97 78.8 306.65 74.0899 312.59 93.6999C318.3 112.54 308.1 132.61 293.35 133.04C286.73 132.3 282.02 124.39 277.13 109.78C272.24 95.17 275.25 82.99 289.97 78.8Z" fill="#F6AF9A"/>
<path d="M279.8 117.1C280.47 118.76 281.14 120.29 281.82 121.7C283.5 120.86 285.47 119.56 285.5 118.5C285.36 116.29 282.27 116.75 279.8 117.1Z" fill="#EDA48E"/>
<path d="M291.88 116.16C291.88 116.16 292.18 114.36 296.01 113.57C298.14 113.13 300.45 112.58 300.9 114.51C301.72 116.95 291.21 120.4 291.89 116.16H291.88Z" fill="#EDA48E"/>
<path d="M294.82 110.95C295.04 112.08 294.53 113.12 293.68 113.29C292.83 113.45 291.97 112.67 291.75 111.55C291.53 110.42 292.04 109.38 292.89 109.21C293.74 109.05 294.6 109.83 294.82 110.95Z" fill="#121D3F"/>
<path d="M283.412 115.233C284.193 115.082 284.662 114.115 284.461 113.074C284.259 112.033 283.463 111.312 282.682 111.463C281.901 111.614 281.432 112.581 281.633 113.622C281.835 114.663 282.631 115.384 283.412 115.233Z" fill="#121D3F"/>
<path d="M289.89 120.24C288.95 120.5 287.61 120.73 286.92 120.13C286.66 119.9 286.39 119.48 286.56 118.72C287.24 115.75 286.81 111.44 286.81 111.39C286.78 111.09 287 110.83 287.3 110.8C287.6 110.77 287.86 110.99 287.89 111.29C287.91 111.47 288.34 115.82 287.62 118.97C287.61 119.04 287.56 119.26 287.63 119.32C287.94 119.59 289.3 119.35 290.32 118.96C290.6 118.86 290.91 119 291.02 119.28C291.13 119.56 290.98 119.87 290.7 119.98C290.52 120.05 290.23 120.15 289.88 120.25L289.89 120.24Z" fill="#E08C79"/>
<path d="M295.99 122.72C291.59 128.37 287.96 125.53 286.9 124.47C286.76 124.33 286.83 124.08 287.03 124.04L295.74 122.31C295.97 122.26 296.13 122.53 295.99 122.72Z" fill="white"/>
<path d="M283.6 107.89C283.6 107.89 284.45 107.73 284.6 108.33C284.77 109 284.91 109.31 284.54 109.52C284.17 109.74 281.31 109.95 279.21 110.33C277.08 110.71 276.77 110.77 276.6 110.57C276.43 110.37 277.47 109.19 279.6 108.7C282.08 108.12 280.95 108.34 283.6 107.89Z" fill="#B54C4C"/>
<path d="M289.57 106.61C289.57 106.61 288.72 106.77 288.79 107.38C288.87 108.06 288.85 108.41 289.28 108.47C289.71 108.54 293.52 107.52 295.62 107.11C297.74 106.69 298.7 106.63 298.79 106.39C298.88 106.15 296.84 105.42 294.67 105.73C292.15 106.09 292.2 106.07 289.57 106.61Z" fill="#B54C4C"/>
<path d="M325.53 133.18C324 133.14 323.22 130.99 323.85 129.91C324.48 128.83 324.96 126.88 324.06 124.27C323.16 121.66 319.29 119.86 318.84 113.75C318.39 107.64 320.46 74.0101 294.11 76.8801C294.11 76.8801 286.11 75.35 279.72 81.2C273.34 87.04 271.72 97.21 272.53 102.96C273.34 108.71 276.49 114.11 276.49 114.11C276.49 114.11 275.59 108.53 276.22 104.76C276.85 100.98 277.66 99.0901 277.03 96.7601C277.03 96.7601 280.45 97.5701 283.86 97.0301C287.28 96.4901 294.29 94.6901 297.44 99.6401C300.59 104.59 300.7 106.76 302.47 108.1C306.57 111.22 303.55 113.64 303.84 116.82C303.76 118.41 303.71 121.42 304.27 123.82C305.08 127.24 307.06 130.47 305.89 133.71C304.72 136.95 301.93 143.06 304.09 146.03C306.25 149 305.17 152.95 304.63 154.21C304.63 154.21 307.15 152.32 306.88 148.37C306.61 144.41 306.15 142.68 306.7 140.82C307.34 138.67 308.42 137.36 309.26 135.5C309.34 138.29 309.91 140.84 312.01 142.08C316.42 144.69 323.07 140.91 324.51 139.2C325.95 137.49 327.19 135.39 328.54 135.3C328.54 135.3 327.75 133.23 325.53 133.17V133.18Z" fill="#B54C4C"/>
<path d="M277.03 96.76C275.03 86.6 285.71 79.62 294.11 76.89C287.91 79.87 281.31 83.53 278.2 89.97C277.24 92.08 276.69 94.45 277.02 96.77L277.03 96.76Z" fill="#A64242"/>
<path d="M277.33 92.15C280.68 95.07 285.37 93.3 289.34 93.39C293.71 93.33 298.01 94.54 300.48 98.41C301.11 99.43 301.73 100.6 301.94 101.74C301.26 100.53 300.6 99.24 299.66 98.2C297.14 95.21 293.15 93.95 289.33 93.91C286.53 93.76 283.63 94.49 280.86 93.96C279.66 93.68 277.87 93.1 277.32 92.15H277.33Z" fill="#A64242"/>
<path d="M279.57 87.11C282.01 88.36 284.67 89.31 287.41 89.59C294.62 89.7 302.13 90.16 305.41 97.74C305.93 99.04 306.39 100.48 306.45 101.83C305.95 100.38 305.51 98.84 304.71 97.5C303.03 94.35 299.98 92.08 296.58 91.08C293.6 90.14 290.45 90.18 287.37 89.94C286.18 89.78 284.95 89.48 283.81 89.09C282.99 88.81 282.18 88.48 281.39 88.12C280.76 87.83 280.14 87.5201 279.54 87.1701C279.5 87.1501 279.54 87.08 279.58 87.11H279.57Z" fill="#A64242"/>
<path d="M288.54 82.61C300.81 81.43 309.72 91.7601 311.77 103.05C312.12 105.03 312.63 107.44 312.52 109.27C311.94 106.01 311.23 102.75 310.15 99.62C306.92 89.45 299.44 82.31 288.54 82.61Z" fill="#A64242"/>
<path d="M294.39 79.1899C303.83 79.3799 312.37 86.11 314.2 95.47C314.31 95.99 314.48 96.81 314.53 97.34C314.99 100.33 313.79 95.1899 313.5 94.6899C310.35 85.4899 303.86 80.2399 294.38 79.1899H294.39Z" fill="#A64242"/>
<path d="M314.92 107.56C314.38 111.3 314.68 115.51 317.13 118.56C318.72 120.71 320.66 122.79 321.38 125.44C321.65 126.57 321.85 128.22 321.42 129.13C321.42 128.15 321.31 127.19 321.06 126.28C320.12 123.1 317.52 120.46 315.87 117.64C314.28 114.67 314.08 110.57 314.92 107.56Z" fill="#A64242"/>
<path d="M307.91 112.41C308.06 119.12 310.64 117.69 313.24 122.21C313.85 123.39 314.13 124.74 314.13 126.07C313.97 129.82 313.48 133.86 315.24 137.31C315.81 138.47 316.81 139.37 317.79 140.13C315.94 139.43 314.59 137.62 313.94 135.77C312.92 132.87 313.2 129.75 313.51 126.76C313.54 126.42 313.57 125.93 313.55 125.59C313.48 121.92 311.42 120.43 309.12 118.05C308.07 116.49 307.63 114.05 307.9 112.42L307.91 112.41Z" fill="#A64242"/>
<path d="M316.8 125.78C317.91 126.81 318.46 128.33 318.56 129.82C318.61 130.94 318.35 132.19 319.16 133.11C319.94 134.14 321.31 134.91 321.59 136.3C321.62 136.58 321.69 136.96 321.53 137.17C321.39 136.67 321.25 136.16 320.87 135.78C319.21 134.24 317.6 133.23 318.07 130.62C318.28 128.54 317.76 127.34 316.79 125.79L316.8 125.78Z" fill="#A64242"/>
<path d="M302.44 109.18C302.44 109.18 301.99 104.66 304.52 104.05C306.92 103.47 309.13 106.19 308.26 110.53C307.32 115.25 303 116.32 302.44 109.18Z" fill="#F6AF9A"/>
<path d="M306.26 108.32C306.21 108.13 306.01 108.02 305.82 108.08C305.79 108.08 305.43 108.2 305.07 108.51C305.3 107.46 305.78 106.91 305.81 106.87C305.94 106.73 305.93 106.5 305.78 106.37C305.64 106.24 305.41 106.25 305.28 106.39C305.22 106.45 304.07 107.76 304.26 110.17C304.26 110.21 304.26 110.25 304.26 110.29C304.26 110.35 304.27 110.41 304.3 110.47C304.34 110.8 304.4 111.15 304.5 111.52C304.54 111.66 304.65 111.76 304.79 111.78C304.84 111.78 304.88 111.78 304.93 111.78C305.12 111.73 305.23 111.54 305.18 111.35C305.07 110.93 305.01 110.54 304.98 110.18C305.11 109.06 305.98 108.77 306.03 108.75C306.22 108.69 306.32 108.5 306.27 108.31L306.26 108.32Z" fill="#EB9D86"/>
<path d="M306.89 258.17L307.77 256.52L296.82 211.14L228.63 201.79L227.4 203.13L306.89 258.17Z" fill="#5569BD"/>
<path d="M227.4 203.13L240.89 246.47V248.92C240.89 249.27 241.14 249.58 241.49 249.64L306.89 261.58V258.16L295.74 212.66L227.4 203.13Z" fill="#3A4B82"/>
<path d="M306.89 258.17C306.89 258.17 306.5 256.57 305.86 253.98C259.64 243.32 249 212.81 247.15 205.9L227.4 203.14L240.89 246.48V248.93C240.89 249.28 241.14 249.59 241.49 249.65L306.89 261.59V258.17Z" fill="#364780"/>
<path d="M241.38 249.62L306.89 261.58V258.16L240.89 246.47V249.03C240.89 249.32 241.1 249.57 241.38 249.62Z" fill="#2F4078"/>
</svg>
